<?xml version="1.0" encoding="utf-8"?>
<!-- Generator: Adobe Illustrator 23.0.3, SVG Export Plug-In . SVG Version: 6.00 Build 0)  -->
<svg version="1.1" id="Layer_1" xmlns="http://www.w3.org/2000/svg" xmlns:xlink="http://www.w3.org/1999/xlink" x="0px" y="0px"
	 viewBox="0 0 595.3 158.2" enable-background="new 0 0 595.3 158.2" xml:space="preserve">
<rect x="-15.9" y="-19.7" display="none" stroke="#FFFFFF" stroke-miterlimit="10" width="677.6" height="215"/>
<g>
	<path fill="#FFFFFF" d="M150.4,97c-0.2,7.1-5.6,12.3-12.8,12.9c-1.4,0.1-2.8,0.1-4.2,0.1c-4.2-0.1-7.9,1.1-10.9,4.2
		c-0.8,0.9-1.5,1.4-2.2-0.1c-5.2-10.1-14-15.1-24.7-17.4c-0.3-0.3-0.6-0.4-1-0.4c-0.2,0-0.4,0-0.5,0c-2,0.1-3.8-0.4-5.3-1.7
		c0.2-0.2,0.1-0.6-0.6-1.3c-4-2.4-6.1-6.1-7.8-10.3c-0.9-2.3-1.7-4.8-2.6-7.1c-0.8-2-2.1-3.8-4.2-4.6c-1.3-0.5-3.2-0.5-2.5,1.5
		c1.6,4.8,1.7,10,3.2,14.8c0.2,0,0.3-0.1,0.4-0.1c0,0,0,0,0,0c0,0.3,0,0.5-0.1,0.6c-0.2,0.6-0.7,0.7-1.4,0.5c-0.1,0-0.2-0.1-0.3-0.1
		l-0.1-0.1c0.1-0.1,0.2-0.2,0.2-0.3c-3.2-4.4-5-9.6-7.4-14.5c-0.9-1.9-2.2-3.4-3.8-4.7c-1-0.9-2.1-0.8-3.1-0.1
		c-1,0.7-0.8,1.7-0.4,2.7c0.5,1.4,1,2.8,1.5,4.2c1.3,4.2,2,8.7,3.9,12.8c0.2-0.1,0.4-0.2,0.5-0.2c0,0.1,0,0.2,0.1,0.3
		c0.1,0.4,0.1,0.9-0.1,1.3c-1.1,0.6-2.2,1.1-3.3,1.7c-0.5,0.3-1,0.1-1.5-0.1c0,0-0.1,0-0.1-0.1c0,0,0,0,0,0c0.1-0.1,0.2-0.2,0.3-0.3
		c-2.8-2.1-3.8-5.5-5.4-8.3c-1.7-2.9-3-6-5.8-8.1c-1.4-1-2.9-2.4-4.5-1c-1.4,1.2-0.9,3-0.1,4.6c1.4,2.6,2.6,5.4,4.1,8
		c2.5,4.3,3.5,9.3,6.9,13.1c0,0,0.1,0,0.1,0c0,0,0,0.1,0,0.1v0.2c-0.3,0.7-0.8,0.8-1.4,0.4c-1.2-0.7-2-1.9-2.8-2.9
		c-2.7-3.5-6-6.3-10-8.3c-1.6-0.8-3.1-0.9-4.3,0.5c-1.2,1.4,0.2,2.4,0.9,3.4c4.7,6.4,9.4,12.8,15.6,17.9c8.9,7.3,19.4,9.5,30.4,10.8
		c6.5,0.8,13,1.6,19,4.4c4.8,2.3,8.8,5.5,11.8,10c0.8,1.2,0.8,1.8-0.4,2.7c-2.5,2-5.4,3-8.6,3c-11.8,0-23.5,0.1-35.3,0
		c-8.5-0.1-14-5.6-14.2-14.1c-0.1-1.7,0-3.4-0.2-5c-0.6-6.9-5.6-11.9-12.6-12.4c-2-0.1-3.9,0-5.9-0.2c-7.4-0.5-12.7-5.6-12.9-13
		c-0.3-12.4-0.3-24.8,0-37.3c0.2-7.3,5.7-12.4,13-12.8c1.3-0.1,2.6-0.1,3.9-0.1c4.2,0.1,7.9-1.2,10.9-4.3c0.9-0.9,1.4-1.4,2.2,0.1
		c6.2,11.2,16,16.5,28.4,17.7c1,0.1,2,0.3,3,0.5c0.3,0.3,0.4,0.6,0.3,0.9c0,0.1,0,0.2-0.1,0.3c0,0-0.1,0-0.2,0c-0.7,0.5-0.4,1,0,1.3
		c1.4,0.8,2.4,2.2,3.7,3.1c3.8,3.6,5.1,8.6,6.7,13.3c0.8,2.2,1.9,4,3.8,5.4c1,0.7,2,1.3,3.1,0.6c1.1-0.8,0.4-1.8,0.1-2.8
		c-0.9-3-1.6-5.9-2-9c-0.2-0.6-0.4-1.2-0.6-1.8c0-0.3,0.1-0.6,0.3-0.9c0.2-0.3,0.5-0.6,1.1-0.7c0,0,0.1,0,0.1,0c0.1,0,0.2,0,0.3,0.1
		c0,0.1,0,0.2,0,0.2c2.8,3.3,4,7.3,5.7,11.1c1.1,2.3,2.4,4.4,4.3,6.1c1,0.8,2,1,3.1,0.4c1.2-0.7,1.1-1.8,0.7-2.9
		c-1.8-4.6-2.9-9.4-4.2-14.1c-0.3-1.2-0.7-2.3-1.7-3.1c-1.7-1.4-3.8-0.5-5.6-0.7c-1.3,0-2.5-0.6-3.7-1c-0.2,0.4-0.3,0.7-0.4,1h0
		c-0.3,0-0.5,0.1-0.8,0.1c-0.2,0-0.3-0.1-0.5-0.2c0,0-0.1,0-0.1-0.1c-0.2-0.2-0.4-0.4-0.5-0.6v0c-0.2-0.2-0.3-0.4-0.5-0.6
		c0,0,0,0,0,0c-0.2-0.2-0.3-0.4-0.4-0.7c-0.8-1.9,0.2-1.8,1.5-1.3c0.4,0.6,1.1,0.3,1.7,0.6c3.4,1.3,6.8,2.6,10.6,1.7
		c1.1-0.6,2.2-1.1,2.7-2.3c0.7-0.1,1,0.3,1.3,0.7c0,0.6,0.3,1,0.5,1.6c2,1.5,2.8,3.9,4,6c1.9,3.5,3.5,7.3,6.8,9.8
		c1.3,1,2.9,1.9,4.3,0.7c1.2-1,0.9-2.8,0.1-4.2c-3.4-6.7-6.8-13.4-10.2-20.1c-0.1-0.1-0.2-0.2-0.3-0.3c0.6-2,1.4-0.4,2.1,0.3
		c3.3,3.5,6.5,7.1,11.1,9.2c1.6,0.7,3,1.1,4.3-0.3c1.4-1.5-0.1-2.6-0.9-3.6c-4.8-6.6-9.6-13.1-16.1-18.2c-7-5.4-14.9-8.3-23.6-9.5
		c-7.2-1-14.5-1.6-21.5-3.8c-6.5-2.1-11.9-5.8-15.7-11.5c-0.8-1.3-0.6-2,0.5-2.8c2.4-1.8,5.1-2.8,8-2.8c12.1,0,24.3-0.1,36.4,0
		c7.8,0.1,13.1,5.5,13.5,13.2c0.2,2.9-0.2,5.8,0.7,8.6c1.5,5.2,5.9,9,11.3,9.5c2.1,0.2,4.3,0.1,6.4,0.2c7.4,0.4,13,5.6,13.2,13
		C150.7,72.2,150.7,84.6,150.4,97z"/>
	<path fill="#FFFFFF" d="M229,15.4c0,10.7,0,21.5,0,32.2c0,5.3,0,10.6,0,15.9c0,2.7,0,5.3,0,8c0,1.2,0.2,3.2-1.1,3.8
		c-0.9,0.4-2.1,0.1-3.1,0c-1.4-0.1-2.8-0.1-4.2,0c-0.8,0.1-1.9,0.3-2.6-0.3c-0.7-0.5-0.7-1.5-0.7-2.2c0.1-12.1,0.1-24.3,0.1-36.4
		c0-1.4,0-2.9,0-5.1c-2.5,3.1-2.9,6.2-3.9,9c-2.2,6.1-4.3,12.2-6.3,18.4c-1.1,3.1-2.1,6.3-3.2,9.4c-0.5,1.4-0.9,2.8-1.4,4.1
		c-0.4,1-0.6,2.6-1.8,2.9c-1.1,0.3-2.6,0.1-3.8,0.2c-1.4,0.1-2.9,0.1-4.4-0.3c-2.1-0.6-2.4-2.6-2.6-4.5c-0.4-2.7-1.5-5.2-2.4-7.7
		c-1.1-3.1-2.2-6.3-3.3-9.4c-2.4-6.9-4.8-13.8-7.2-20.7c-0.1-0.2-0.3-0.4-1-1.4c0,2.6,0,4.5,0,6.4c0,11.6-0.1,23.2,0,34.7
		c0,2.3-0.7,3-2.9,2.8c-1.8-0.2-3.6,0-5.4,0c-0.8,0-1.9,0-2.7-0.4c-1.6-0.8-1.1-3.6-1.1-5c0.3-18,0.3-36,0.1-54.1c0-1.3,0.7-2,2-2.1
		c2-0.1,4,0,6,0c2,0,4,0,6,0c1.5,0,2.1,0.7,2.6,2.1c4.9,14.1,9.8,28.2,14.8,42.3c0.2,0.5,0.3,1.1,1.3,1.5
		c4.7-13.1,9.4-26.2,14.1-39.3c2.5-7.7,1.9-6.2,9.1-6.4c1.9,0,3.8,0,5.8,0C227.2,14,228.5,14,229,15.4z"/>
	<path fill="#FFFFFF" d="M394.5,60.4c1.5-4,2.7-7.4,3.9-10.7c4-11.2,8.1-22.5,12-33.8c0.6-1.7,1.4-2.2,3-2.1c3.6,0.1,7.3,0.1,10.9,0
		c1.6,0,2.3,0.3,2.3,2.1c-0.1,19.2-0.1,38.3,0,57.5c0,1.4-0.6,1.9-1.9,2c-2,0-3.9-0.1-5.9-0.1c-1.1,0-2.9,0.5-3.5-0.7
		c-0.7-1.2-0.3-3.2-0.3-4.6c0-8.4,0-16.7,0-25.1c0-2.4,0-4.8,0-7.2c0-2.1,0.3-4.4-0.6-6.3c-1.2,3.4-2.5,6.8-3.6,10.3
		c-3.6,10.5-7.3,21-10.8,31.5c-0.5,1.6-1.3,2.1-3,2.1c-7.7,0-7.6,0-10-7.2c-4-11.9-8.2-23.8-12.3-35.7c-0.1-0.2-0.3-0.4-0.5-0.7
		c-0.9,0.9-0.5,2-0.5,2.9c0,12.6-0.1,25.2,0,37.8c0,2.1-0.5,3-2.7,2.8c-2.2-0.2-4.5-0.1-6.7,0c-1.7,0.1-2.3-0.5-2.2-2.2
		c0.1-4.5,0-9,0-13.5c0-14.3,0.1-28.6,0-42.9c0-2.3,0.5-3.2,2.9-3c3.2,0.2,6.4,0.2,9.5,0c2.5-0.2,3.6,0.7,4.4,3.1
		c4.6,13.6,9.4,27.2,14.2,40.7C393.5,58.3,393.9,59.1,394.5,60.4z"/>
	<path fill="#FFFFFF" d="M355.4,72.6c-7.6-17.7-15.1-35.5-22.7-53.3c-2.4-5.5-2.4-5.4-8.6-5.5c-1.9,0-2.8,0.7-3.5,2.4
		c-6,14.8-12.2,29.6-18.4,44.3c-1.7,4.1-3.5,8.3-5.2,12.4c-0.9,2.1-0.4,2.5,1.7,2.4c2.7-0.1,5.4-0.1,8.1,0c1.6,0.1,2.3-0.6,2.8-2
		c1.6-4.1,3.4-8.1,5-12.2c0.5-1.3,1.3-1.8,2.7-1.8c6,0.1,12,0.1,17.9,0c1.4,0,2.2,0.5,2.7,1.8c1.2,2.9,2.7,5.8,3.6,8.8
		c1.3,4.3,3.5,6.5,7.5,5.3c2,0,3.2-0.1,4.4,0C356.1,75.6,356.3,74.8,355.4,72.6z M331.3,48.3c-3.3,0-6.5,0-9.8,0
		c-1.2,0-1.5-0.4-1.2-1.5c1.9-5.3,3.7-10.7,5.6-16c0.2,0,0.4,0,0.7,0c1.9,5.3,3.8,10.7,5.8,16C332.7,47.7,332.5,48.3,331.3,48.3z"/>
	<path fill="#FFFFFF" d="M568,72.8c-7.5-17.6-14.9-35.2-22.3-52.8c-2.2-5.2-2.2-5.1-7.9-5.3c-2.2-0.1-3.3,0.6-4.1,2.7
		c-7,17.5-14.2,34.9-21.2,52.3c-2.3,5.6-2.2,5.7,3.7,5.7c1,0,2.1-0.1,3.1,0c2.3,0.4,3.5-0.6,4.2-2.8c1.3-3.8,3.1-7.4,4.5-11.1
		c0.5-1.3,1.2-1.8,2.7-1.8c3.9,0.1,7.8,0,11.8,0c2.5,0,5.5-0.7,7.4,0.3c2.2,1.2,2.2,4.5,3.4,6.8c1.4,2.7,1.6,6.7,4,8
		c2.4,1.3,6,0.3,9.1,0.5C568.7,75.6,569,75,568,72.8z M544.3,48.6c-2.3,0-4.7,0-7,0c-1.1,0-4.5,0.6-3.8-1.4
		c1.9-5.3,3.7-10.6,5.6-15.9c0.2,0,0.4,0,0.6,0c1.9,5.3,3.8,10.6,5.7,15.9C545.7,48.3,545.3,48.6,544.3,48.6z"/>
	<path fill="#FFFFFF" d="M501.9,32.1c-3,0.6-5.8-0.8-8.9-3.4c-6-5.1-13.3-5.8-20.5-2.4c-7.8,3.7-11.5,10.4-11.5,19
		c0,15.7,15.9,25.6,29.6,18.3c0.7-0.4,1.6-0.7,2.1-1.4c3.4-4.2,8.4-3.2,13.1-3c0.6,0,2.5-0.3,2.8,0.2c0.3,0.5-0.4,1.4-0.7,1.8
		c-1.4,2.3-2.8,4.5-4.6,6.4c-2.1,2.2-4.5,4.1-7.2,5.5c-11.5,6.1-22.8,5.7-33.2-2c-11-8.2-14.8-19.7-12.1-33
		c2.5-12.5,12.5-22,24.7-24.1c12.8-2.2,25.2,3.4,32,14.3c0.6,1,1.8,2.2,1.4,3.2c-0.5,1.1-2.1,0.5-3,0.5
		C504.6,32,503.2,32.1,501.9,32.1z"/>
	<path fill="#FFFFFF" d="M271.6,42.3c-1.9,3.5-4,7.4-4.8,11.3c-1,4.3-0.9,9.3-0.6,13.7c0.2,2,0,4.1,0,6.2c0,1.3-0.5,2.1-1.9,1.9
		c-0.1,0-0.2,0-0.3,0c-2.9-0.1-6.6,0.9-8.4-0.5c-1.3-1.1-1.1-3.1-0.9-4.6c0.2-2.2,0.3-4.3,0.2-6.6c-0.1-4.8,1-10-1.5-14.4
		c-3.3-5.8-6-11.9-9.1-17.8c-2.7-5.2-5.3-10.4-8.1-15.5c-0.7-1.3-0.5-2.2,1.1-2.2c2.3,0,4.6,0.2,6.9,0c2.6-0.3,4,0.9,4.9,3.1
		c0.8,1.9,1.6,3.8,2.5,5.7c0.4,1.7,0.9,3.3,2.1,4.5c1.9,4.1,3.9,8.2,5.8,12.2c1.8,1.4,2.2,1.2,3.1-1.1c3-6.5,6-13.1,9.1-19.6
		c0.9-2.6,2.8-4.7,5.7-4.7c0.8,0,1.5,0.2,2.3,0.2c1,0,2-0.2,2.9-0.3c1.2-0.1,2.4,0,2.6,1.4c0,0.2,0,0.3-0.1,0.5
		c-0.7,1.2-1.4,2.3-2.1,3.5c-1.8,3.4-3.1,7.4-5,11c-2,3.8-4.2,7.5-6.1,11.3C271.8,41.9,271.7,42.1,271.6,42.3z"/>
	<path fill="#FFFFFF" d="M434.3,44.8c0-9.2,0.1-18.3-0.1-27.5c0-1.6,0.5-2.7,2.2-2.6c1.1,0,2.1,0.1,3.2-0.1c1-0.1,2.1-0.3,3.1-0.2
		c5,0.2,3,6,3,9.1c0,16.3-0.2,32.7,0.3,49c0,0.8,0.1,2-0.7,2.5c-0.9,0.6-2.3,0.2-3.2,0.2c-2.2,0.1-5.6,1.2-7.4-0.6
		c-1.7-1.7-0.4-5.5-0.5-8.4C434.2,59.2,434.3,52,434.3,44.8z"/>
	<path fill="#FFFFFF" d="M259.3,89.5c-2.1,1.8-2.8,4.3-3.8,6.7c-1.2,3-2.7,5.9-3.9,8.9c-1.2,3-2.3,6.1-3.7,9c-0.5,1-1.2,1.7-2.4,1.6
		c-1.2-0.1-1.5-1.2-1.9-2.2c-1.9-4.5-3.7-8.9-5.6-13.4c-0.9-2.1-1.6-4.2-2.6-6.2c-0.9-1.7-1.8-3.3-2.2-5.2c-0.9,1.6-0.7,2.7-0.7,3.8
		c0,4.8,0,9.6,0,14.4c0,2.2-0.1,4.4,0,6.5c0.1,1.3-0.1,2.3-1.7,2.3c-2,0-1.6-1.4-1.6-2.6c0-9,0-17.9,0-26.9c0-0.6-0.1-1.4,0.3-2
		c0.5-0.6,1.4-0.5,2.1-0.5c0.7,0,1.5-0.1,2.1,0.2c0.9,0.5,1.2,1.6,1.6,2.5c2.1,4.8,4.1,9.6,6.1,14.4c1.3,3.1,2.6,6.3,4.1,10
		c1.3-1.8,2.2-3.8,3-5.8c0.8-2.1,1.8-4.1,2.7-6.2c2-4.4,4-8.9,5.8-13.4c0.4-1.1,1.2-1.7,2.4-1.7c0.7,0,2.3-0.1,2.9,0.3
		c0.7,0.5,0.4,1.4,0.3,2.1c-0.1,1.7,0,3.4,0,5.1c0,7.3,0,14.6,0,21.8c0,0.7,0.2,1.6-0.2,2.2c-0.5,0.7-2,0.7-2.7,0.3
		c-0.7-0.5-0.5-1.3-0.5-2.1c0.1-1.5,0-3.1,0-4.6C259.3,102.3,259.3,95.9,259.3,89.5z"/>
	<path fill="#FFFFFF" d="M208.4,83.2c-9.8-0.4-17.2,7.9-17.5,15.9c-0.3,9.6,7.1,17,16.9,17.2c9,0.1,16.6-7.4,16.8-16.6
		C224.8,91,217.3,83.6,208.4,83.2z M207.8,113.3c-7.5,0-13.5-6.1-13.5-13.5c0-5.4,3.3-10.4,8.4-12.4c5.4-2.1,11.8-0.5,15.7,3.8
		c2,2.3,3.3,5.3,3,8.4C222,106.4,215.8,113.2,207.8,113.3z"/>
	<path fill="#FFFFFF" d="M322,99.6c0,4.5,0,9,0,13.4c0,1.2,0.2,2.6-1.6,2.7c-2.2,0.1-1.7-2.4-1.7-3.9c0-2.9,0-5.8,0.1-8.7
		c0-1.6-0.5-2.1-2.1-2.1c-4,0.1-8,0.1-12,0c-1.7,0-2.3,0.6-2.3,2.3c0.1,3.4,0.1,6.7,0.1,10.1c0,1.1,0.1,2.4-1.6,2.3
		c-1.7,0-1.6-1.3-1.6-2.4c0-8.9,0-17.9,0.1-26.8c0-1.3-0.2-2.7,1.5-2.6c1.7,0,1.5,1.4,1.5,2.7c0,2.6,0.1,5.3,0,7.9
		c0,1.8-0.2,3.5,2.1,3.5c4.1-0.1,8.2-0.1,12.3-0.1c2.3,0,2-2.1,2-3.8c0-2.7,0-5.5,0-8.2c0-1.3,0.8-2.3,2.2-1.9c1.4,0.4,1,2.3,1,3.4
		C321.9,91.4,322,95.5,322,99.6z"/>
	<path fill="#FFFFFF" d="M376.6,113.9c-4-9.5-8-19-12-28.5c-0.5-1.1-1.2-1.6-2.7-1.6c-1.1-0.1-2.1,0.5-2.7,2c-0.9,2.4-2,4.7-3,7.1
		c-3.1,6.8-6.2,13.7-9.2,20.5c-0.9,2.1-0.4,2.6,1.8,2.5c1.3-0.1,1.5-0.9,1.9-1.8c1-2.3,2-4.6,2.8-7c0.5-1.5,1.4-2.1,2.9-2.1
		c3.6,0,7.3,0,10.9,0c1.6,0,2.6,0.5,3.1,2.4c0.7,2.5,1.9,4.8,2.9,7.2c0.6,1.4,2,1.3,3.1,0.9C377.3,115.3,376.8,114.5,376.6,113.9z
		 M366.3,102.2c-2.9,0-5.8,0-8.7,0c-1.2,0-1.9,0-1.2-1.7c1.8-4,3.4-8,5.1-12c0.3-0.1,0.5-0.1,0.8-0.2c1.5,3.4,3,6.9,4.5,10.3
		c0.3,0.6,0.4,1.3,0.7,1.8C368.3,101.8,367.8,102.2,366.3,102.2z"/>
	<path fill="#FFFFFF" d="M545.2,114.1c-2.6-3.4-5.2-6.8-7.7-10.2c-0.5-0.6-1.2-1.6-1-2.1c0.4-1,1.6-0.4,2.5-0.6
		c0.6-0.1,1.1-0.1,1.7-0.1c1-0.8,2.4-0.2,3.4-1.1l0,0c4.4-3.6,4.9-6,2.2-10.6c-3.6-3.7-8.3-2.6-12.7-2.7c-1.6,0-1,3-1,4
		c0,2.5,0.1,5.1,0.1,7.6c0,5,0,10-0.3,15c-0.1,1.1,0.3,2.6-1.7,2.5c-1.8-0.1-1.3-1.5-1.3-2.5c0-9,0.1-17.9,0-26.9
		c0-2.1,0.8-2.5,2.6-2.6c3.9-0.1,7.8-0.1,11.7,0.6c3.5,0.7,6.8,4.3,7.2,8c0.6,4.6-1.3,8.8-4.8,10.4c-1.5,0.7-5.1,1.2-2.9,3.5
		c2.2,2.2,3.6,4.9,5.4,7.4c0.5,0.8,0.6,1.5-0.5,1.6C546.9,115.3,545.7,115,545.2,114.1z"/>
	<path fill="#FFFFFF" d="M524.1,112.7c-3.8-9.5-7.6-18.9-11.5-28.3c-1.5-0.8-2.9-1-4.3,0c-4.2,9.6-8.5,19.3-12.7,28.9
		c-0.3,0.7-1.6,1.7-0.1,2.2c1,0.4,2.5,0.6,3.2-0.7c0.7-1.3,1.2-2.7,1.7-4.1c2-5.7,2-5.7,8-5.7h3.1c5.8,0,5.8,0,8,5.4
		c0.5,1.1,1,2.2,1.4,3.3c0.6,1.7,1.7,2.7,3.4,1.8C525.8,114.8,524.4,113.6,524.1,112.7z M514,102.2c-1.2-0.1-2.4,0-3.6,0
		c-6.1,0-6.1,0-3.7-5.5c0.9-2.2,1.8-4.5,2.8-6.7c0.2-0.5,0.4-1.1,1-1.2c0.9-0.1,1,0.7,1.2,1.3c1.4,3.2,2.7,6.5,4.1,9.7
		C516.5,101.6,516,102.3,514,102.2z"/>
	<path fill="#FFFFFF" d="M422.9,99.8c0-4.3-0.1-8.6,0-12.9c0-1.4-0.6-3.1,1.5-3c1.9,0.1,1.4,1.8,1.5,3.1c0.1,3.1,0.3,6.2,0.2,9.2
		c0,0.8,0.2,1.4,1.1,1.5c1.3,0.2,2.8,0,4.1,0c3,0,6,0,9.1,0c1.5,0,1.9-0.5,1.9-2c-0.1-3.3,0-6.5,0-9.8c0-1.1-0.3-2.4,1.5-2.4
		c1.5,0,1.8,0.9,1.8,2.2c0,9.2,0,18.3,0,27.5c0,1.2-0.1,2.3-1.6,2.3c-1.5,0-1.7-1-1.7-2.2c0-3.5-0.1-6.9,0-10.4c0-0.8-0.1-1.6-0.9-2
		c-1.1-0.4-2.6-0.1-3.7-0.1c-3.1,0-6.1,0-9.2-0.1c-2-0.1-2.4,0.9-2.4,2.5c0,3.2,0.1,6.3,0.1,9.5c0,1.4,0.1,2.6-1.7,2.7
		c-1.5,0-1.5-1.1-1.5-2.3C422.9,108.9,422.8,104.3,422.9,99.8C422.8,99.8,422.8,99.8,422.9,99.8z"/>
	<path fill="#FFFFFF" d="M164.2,102c0-6.8,0-11.4,0-16c0-1.1,0.2-2.1,1.5-2.2c1.5-0.1,1.8,0.9,1.8,2.1c0,3.3,0.1,6.5,0,9.8
		c-0.1,1.8,0.8,2.2,2.4,2.2c3.9-0.1,7.8-0.1,11.8,0c2.2,0,2.4-1.4,2.4-3.3c0-2.9,0-5.8,0-8.7c0-0.6-0.1-1.4,0.6-1.8
		c0.6-0.4,1.7-0.2,2.1,0.4c0.5,0.7,0.3,1.9,0.3,2.6c0,1.3,0,2.6,0,4c0,5.3,0,10.6,0,15.8c0,2.4,0.1,4.8,0,7.2c0,0.6-0.1,1.2-0.7,1.5
		c-0.7,0.3-1.7,0.2-2.2-0.4c-0.4-0.6-0.3-1.4-0.3-2.1c0-1.3,0-2.6,0.1-4c0-1.3,0.1-2.6,0.1-4c0-0.9,0.2-1.9-0.1-2.7
		c-0.6-2-3.1-1.4-4.7-1.4c-3,0.1-6,0.1-9-0.1c-1,0-2.1,0.1-2.6,1c-0.5,1.1-0.2,2.7-0.2,3.9c0,1.9,0,3.7,0,5.6c0,0.8,0,1.6,0,2.4
		c0,0.4,0.1,0.9-0.2,1.3c-0.5,0.9-2.3,0.7-2.8-0.1c-0.7-1-0.2-2.9-0.2-4C164.3,108.1,163.9,105,164.2,102z"/>
	<path fill="#FFFFFF" d="M266.1,99.7c0-2.9,0-5.8,0-8.7c0-1.4,0-2.8,0-4.2c0-0.8-0.1-1.8,0.4-2.5c0.5-0.6,1.3-0.6,1.9-0.6
		c1.5,0,2.9,0,4.4,0c2.9,0,5.8,0,8.8,0c1,0,2,0.1,2.2,1.3c0.2,1.3-0.7,1.7-1.8,1.7c-3.5,0.1-7,0.1-10.5,0c-1.6,0-2.1,0.5-2.1,2.1
		c-0.5,9.1-0.5,9.1,8.5,9.1c1.3,0,2.6,0,3.9,0c1.1,0,1.4,0.8,1.5,1.7c0.1,1.1-0.6,1.5-1.6,1.5c-3.4,0-6.7,0.1-10.1,0
		c-1.6-0.1-2.3,0.7-2.3,2.2c0,2.4,0.1,4.8,0,7.3c-0.1,1.7,0.6,2.1,2.1,2c1.9-0.1,3.8-0.1,5.7-0.1c1.8,0,3.6,0,5.4,0.3
		c1,0.2,1.6,1.8,0.8,2.6c-0.4,0.4-0.9,0.3-1.4,0.3c-0.9,0-1.7,0-2.6,0c-3.5,0-7.1,0-10.6,0c-1.1,0-2.4,0.2-2.7-1.1
		c-0.3-1.4-0.1-3-0.1-4.4C266.1,106.7,266.1,103.2,266.1,99.7z"/>
	<path fill="#FFFFFF" d="M491.4,91c-2,3-4-0.5-5.6-1.8c-2.2-1.8-5.1-2.6-7.9-2.8c-5.5-0.3-9.6,2.3-12.2,6.8
		c-2.7,4.8-1.6,11,1.7,15.1c2.6,3.2,6.6,5.1,10.8,4.9c1.9-0.1,3.8-0.6,5.4-1.5c0.8-0.4,1.6-1,2.3-1.6c0.8-0.7,1.5-1.8,2.5-2.3
		c0.9-0.6,2.1-0.8,2.8,0.1c0.6,0.8-0.3,1.5-0.8,2.1c-6.4,8.3-18.5,7.3-24.2,1.5c-4.3-4.4-6.4-10.9-4.5-16.9
		c1.8-5.9,7.1-10.6,13.2-11.5c4.2-0.6,8.4,0.6,12,2.8C488.5,87.7,490.5,88.8,491.4,91z"/>
	<path fill="#FFFFFF" d="M563.4,115.8c-2,0-3.9-0.2-5.9,0c-2.3,0.2-2.7-0.9-2.7-2.8c0.1-5.5,0.2-11,0.2-16.5c0-3.4-0.1-6.7-0.2-10.1
		c-0.1-1.8,0.4-2.8,2.5-2.7c3.3,0.1,6.6,0.1,9.8,0.1c1.2,0,2.5-0.1,3.7,0c1,0.1,1.5,0.5,1.4,1.6c-0.1,1.8-1.5,1.3-2.5,1.3
		c-2.9,0-5.8,0.2-8.7,0c-2.5-0.2-3,0.9-3.1,3.1c-0.2,8.1-0.2,8.1,7.9,8.2c1.4,0,2.8,0.1,4.2,0c1.2,0,2,0.4,2,1.7c0,1.3-1,1.4-2,1.4
		c-1.7,0-3.3,0-5,0c-1.6,0-3.2-0.1-4.8-0.1c-2.8,0.1-2.2,2.6-2.3,4.6c-0.2,2.1-1,5.4,1.2,6.7c2,1.2,4.9,0,7.1,0.1
		c1.5,0.1,3.3-0.2,4.8,0.2c1,0.3,1.5,1.4,1,2.4c-0.5,1-2.3,0.7-3.2,0.7C567.1,115.8,565.2,115.8,563.4,115.8z"/>
	<path fill="#FFFFFF" d="M334.9,115.7c-2.1,0-4.3-0.1-6.4,0c-2.4,0.1-2.3-1.8-2.2-3.7c0.1-2.8,0.2-5.7,0.2-8.5
		c0-5.7-0.1-11.3-0.1-17c0-0.9,0-2,0.8-2.5c0.9-0.7,2.3-0.5,3.4-0.4c3.6,0.1,7.2,0,10.9,0c1.2,0,2.3,0,2.3,1.7c0,2-2.6,1.3-3.9,1.4
		c-2.7,0-5.4,0.1-8,0c-0.9,0-1.8,0.2-2.2,1.1c-0.4,1.3-0.1,3-0.1,4.3c0,0.8,0,1.6,0,2.3c0,0.7-0.2,1.6,0,2.3c0.2,1,1,1.2,2,1.2
		c3.4-0.1,6.7,0,10.1-0.1c1.1,0,2,0.1,2,1.6c0,1.3-0.7,1.6-1.9,1.6c-1.8,0-3.6,0-5.4,0c-1.7,0-3.5-0.2-5.2,0
		c-1.2,0.1-1.6,0.9-1.6,2.1c0.1,2.5,0.1,5,0,7.6c0,1.6,0.5,2,2.2,1.9c3.3-0.2,6.7-0.1,10-0.1c1.2,0,2,0.1,2,1.6
		c0,1.5-0.8,1.6-1.9,1.6C339.4,115.7,337.1,115.7,334.9,115.7z"/>
	<path fill="#FFFFFF" d="M381.1,99.6c0-3.6,0-7.2,0-10.8c0-1.1-0.1-2.3-0.1-3.4c0-1.1,0.7-1.5,1.7-1.5c2.1,0,1.4,1.8,1.4,3
		c0.1,7.6,0,15.1,0,22.7c0,1.7,0,3.2,2,3.3c1.4,0,2.9-0.1,4.4-0.2c1.8,0,3.7-0.3,5.5-0.1c1.1,0.1,1.5,1.1,1.3,2.2c-0.3,1.3-2,1-3,1
		c-3.7,0-7.5,0-11.2,0c-1.6,0-2-0.7-2-2.2C381.1,108.9,381.1,104.3,381.1,99.6z"/>
	<path fill="#FFFFFF" d="M407.9,101c0-3.8-0.1-7.7,0-11.5c0.1-2.1-0.7-3.2-2.9-2.9c-1,0.1-2,0-3.1,0c-0.8,0-1.2-0.4-1.3-1.2
		c-0.1-0.9,0.3-1.5,1.2-1.6c5.1-0.3,10.3-0.4,15.4,0c0.8,0.1,1.3,0.7,1.2,1.5c0,0.9-0.7,1.2-1.5,1.3c-0.1,0-0.2,0-0.3,0
		c-1.8,0.4-4-0.9-5.2,0.8c-1,1.4-0.3,3.5-0.3,5.2c0,6.7,0,13.4-0.1,20.1c0,0.9,0.4,2.2-0.7,2.7c-1.4,0.6-2.6-0.3-2.6-1.7
		C407.8,109.6,407.9,105.3,407.9,101z"/>
	<path fill="#FFFFFF" d="M462.5,124.7c-1.1,3.9-1.9,7-2.8,10.1c-0.3,1.1-0.4,2.3-1.8,2.2c-1.3-0.1-1.2-1.2-1.5-2.2
		c-1-3.9-2-7.8-2.9-11.6c-0.2-0.7-0.6-1.6,0.5-1.8c1-0.3,1.4,0.6,1.6,1.5c0.8,3.4,1.6,6.7,2.9,10.1c0.9-3.2,1.7-6.3,2.6-9.5
		c0.3-0.9,0.2-2.2,1.7-2.2c1.5,0,1.3,1.3,1.6,2.3c0.7,2.8,1.4,5.7,2.1,8.5c0.3,0,0.5,0,0.8,0c0.5-1.7,0.9-3.4,1.4-5.2
		c0.5-1.7,0.8-3.5,1.5-5.1c0.3-0.6,1-0.6,1.5-0.4c0.9,0.3,0,2.1-0.1,2.7c-0.4,1.3-0.8,2.7-1.2,4c-0.8,2.6-1.5,5.2-2.2,7.9
		c-0.2,0.8-0.7,1-1.4,1c-0.9,0-1.1-0.8-1.3-1.5c-0.3-1.1-0.6-2.2-0.8-3.3C463.7,129.7,463.1,127.2,462.5,124.7z"/>
	<path fill="#FFFFFF" d="M293.6,125.5c-0.9,3.2-1.8,6.5-2.7,9.7c-0.2,0.9-0.4,1.8-1.5,1.8c-1.1,0-1.3-0.9-1.5-1.8
		c-0.7-2.8-1.5-5.6-2.2-8.5c-0.3-1.3-0.6-2.6-1-3.8c-0.2-0.8-0.2-1.5,0.7-1.6c0.9-0.1,1.2,0.5,1.4,1.2c0.3,1.1,0.5,2.2,0.8,3.3
		c0.6,2.4,1.3,4.9,2.2,7.2c0.7-2.7,1.4-5.4,2.2-8.1c0.4-1.3,0.2-3.7,2.1-3.6c1.8,0.1,1.6,2.2,1.9,3.5c0.7,2.7,1.3,5.4,2.4,8
		c0.7-2.6,1.4-5.2,2.1-7.7c0.3-1.1,0.5-4.2,2.2-3.6c1.3,0.4,0.4,1.6,0.2,2.4c-0.9,3.6-2,7.2-3,10.8c-0.3,1.1-0.3,2.5-1.8,2.5
		c-1.5,0-1.4-1.4-1.7-2.5c-0.8-3-1.5-6-2.2-8.9C293.9,125.6,293.7,125.6,293.6,125.5z"/>
	<path fill="#FFFFFF" d="M400,133.1c0-2.4,0-4.9,0-7.3c0-1,0-1.9,0-2.9c0-0.7,0-1.6,1-1.6c0.9,0,1.1,0.5,1.2,1.3c0,1.1,0,2.2,0,3.3
		c0,2.9,0,5.7,0,8.6c0,0.9,0.4,1.9-0.7,2.4c-1.2,0.6-1.9-0.5-2.5-1.4c-2.1-3.4-4.2-6.8-6.8-10.9c0,3.9,0,7.1,0,10.3
		c0,0.9,0.2,2.2-1.1,2c-1.2-0.1-0.9-1.5-0.9-2.4c0-3.8,0-7.6,0-11.3c0-0.8-0.1-1.7,0.9-1.9c0.9-0.3,1.7,0.3,2.2,1.1
		C395.3,125.7,397.4,129.1,400,133.1z"/>
	<path fill="#FFFFFF" d="M227.9,125.6c0,3.2-0.1,6.4,0,9.6c0,0.8,0.1,1.7-1,1.7c-1.2,0-1-1-1-1.9c0-3.5,0-6.9,0-10.4
		c0-0.8-0.3-2.5,0.4-3.2c1-0.9,2.3,0.1,2.8,1c1.9,3.1,3.8,6.2,5.7,9.3c0.2,0.3,0.4,0.6,1,1.3c0-3.2,0-6.3,0-9.5c0-0.8-0.3-2,0.7-2.2
		c1.3-0.3,1.2,1.1,1.2,1.9c0,3.8,0,7.6,0,11.5c0,0.8,0.3,1.8-0.7,2.2c-1,0.4-1.6-0.4-2.1-1.1c-0.7-1.1-1.4-2.3-2.1-3.4
		c-1.4-2.3-2.8-4.6-4.3-6.9C228.2,125.5,228.1,125.6,227.9,125.6z"/>
	<path fill="#FFFFFF" d="M362.1,121c-4.4-0.1-7.5,3.3-7.5,8.2c0,4.7,2.8,8,7,8.1c4.4,0,7.4-3.4,7.4-8.3
		C368.9,124.3,366,121,362.1,121z M361.7,135.5c-2.8,0-4.9-2.7-4.9-6.3c0-3.8,2.1-6.6,5-6.5c2.8,0,4.9,2.8,5,6.3
		C366.8,132.6,364.6,135.5,361.7,135.5z"/>
	<path fill="#FFFFFF" d="M253.8,126.3c-0.9-3.3-3.2-4.9-7.2-5.1c-5.4-0.4-5.4-0.4-5.4,4.8v3.1c0,2.1,0,4.1,0,6.2
		c0,0.8-0.1,1.9,1.1,1.9c3,0.1,6,0.3,8.7-1.5C253.7,133.7,254.8,129.8,253.8,126.3z M251,132.6c-1.4,2.4-3.7,2.8-6.3,2.8
		c-1.1,0-1.5-0.6-1.5-1.6c0-1.6,0-3.2,0-4.7c0,0,0,0,0,0c0-0.6-0.1-1.3,0-1.9c0.4-1.5-1.1-3.7,1.2-4.3c2.4-0.5,4.9,0,6.4,2.3
		C252.5,127.6,252.4,130.2,251,132.6z"/>
	<path fill="#FFFFFF" d="M560.8,135.6c-0.6-1.8-0.5-3.8-1.8-5.2c-0.6-0.7-0.6-1.1,0.1-1.8c1.7-1.5,2.1-3.5,0.9-5.5
		c-1-1.7-5-2.6-7.8-1.8c-2.4,0.6-1.1,2.6-1.3,4c-0.2,1.3,0,2.6,0,3.9v3.1c0,1,0,2.1,0,3.1c0,0.7-0.1,1.6,1,1.7
		c1.3,0.1,1.1-1,1.1-1.8c0-0.9,0.1-1.9,0-2.8c-0.3-2.4,1.2-2.3,2.8-2c1.4,0.3,1.8,1.5,2.2,2.7c0.3,1.1,0.5,2.2,0.9,3.2
		c0.2,0.6,0.8,0.8,1.4,0.6C561,136.8,560.9,136.1,560.8,135.6z M554.8,128.6c-2.4,0.2-1.7-1.6-1.8-2.9c0.2-1.3-0.7-3.2,1.9-3.1
		c1.9,0.1,3.6,0.6,3.7,2.9C558.6,127.9,556.8,128.5,554.8,128.6z"/>
	<path fill="#FFFFFF" d="M206.1,135.6c-0.5-1.7-0.5-3.6-1.7-5c-0.8-1-0.7-1.4,0.2-2.2c1.7-1.5,1.9-3.4,0.7-5.3
		c-1.1-1.8-4.9-2.6-7.8-1.9c-2.3,0.6-1.1,2.4-1.3,3.7c-0.2,1.4,0,2.8,0,4.2h0c0,1.3-0.1,2.6,0,3.9c0.2,1.3-1,3.7,0.9,3.7
		c2.1,0,0.6-2.4,1.1-3.6c0.4-1-0.9-2.6,1.2-2.9c1.8-0.2,3.1,0.5,3.6,2.3c0.3,1.2,0.7,2.3,1,3.5c0.2,0.7,0.8,1.1,1.5,0.9
		C206.3,136.7,206.2,136.1,206.1,135.6z M200.1,128.6c-2.7,0.2-1.7-1.8-1.9-2.8c0.1-1.6-0.5-3.4,2.1-3.2c1.9,0.2,3.6,0.8,3.5,3
		C203.7,127.9,202.1,128.5,200.1,128.6z"/>
	<path fill="#FFFFFF" d="M417.5,132.7c0,1.1,0.2,2.6-0.5,3.5c-0.6,0.8-1.8,0.8-2.7,0.9c-3.5,0.2-7.2-0.4-8.8-4
		c-1.5-3.3-1.3-6.5,1.1-9.4c1.5-1.8,4.1-2.6,6.4-2.7c1,0,2.4,0,3.3,0.6c0.4,0.3,0.7,0.9,0.2,1.3c-0.3,0.3-0.9,0.2-1.3,0.1
		c-2.5-0.1-5-0.3-6.8,1.6c-1.5,1.6-1.9,3.9-1.5,5.9c0.6,3.2,3.6,5.3,6.7,4.8c1.7-0.2,1.8-1,1.8-2.5c0-1.2,0.3-2.7-1.5-2.6
		c-0.6,0-1.5,0.2-1.6-0.7c0-1.1,1.1-0.9,1.9-1c0.7,0,1.6-0.2,2.3,0C417.9,129.2,417.5,131.6,417.5,132.7z"/>
	<path fill="#FFFFFF" d="M524.3,128.9c0-2.1,0-4.1,0-6.2c0-0.8,0.2-1.6,1.2-1.5c0.8,0.1,0.8,0.9,0.9,1.5c0,1.3-0.5,3.3,0.5,4.4
		c1,1,2.8,0.7,4,0.6c0.8-0.1,1.9,0,2.5-0.7c0.7-0.9,0.5-2.6,0.5-3.7c0-0.9-0.3-2.1,1-2.1c1.3,0,1.1,1.1,1.1,2.1
		c-0.1,3.9,0,7.8,0,11.8c0,0.9,0.1,1.8-1.1,1.8c-1.2,0-1-1-1.1-1.9c0-0.1,0-0.2,0-0.3c-0.1-1.5,0.3-4.6-1.6-5.1
		c-1-0.3-2.2-0.1-3.3-0.1c-1.6,0.1-2.8,0.2-2.7,2.1c0.1,1.2,0,2.5,0,3.7c0,0.7-0.1,1.6-1,1.6c-0.9,0-1-0.7-1-1.4
		C524.3,133.4,524.3,131.1,524.3,128.9z"/>
	<path fill="#FFFFFF" d="M484.4,135.9c-0.1-0.2-0.2-0.6-0.3-0.9c-1.4-4-2.7-7.9-4.1-11.9c-0.3-1-0.6-2-2-1.9c-1.3,0-1.5,1-1.8,1.9
		c-1.3,3.8-2.6,7.6-3.8,11.4c-0.2,0.8-1.3,1.8,0,2.4c1.4,0.6,1.7-0.8,1.9-1.8c0.5-1.9,1.3-3.2,3.8-3.1c2.4,0,3.4,0.9,3.8,3
		c0.1,0.6,0.4,1.3,0.9,1.7c0.2,0.3,0.9,0.3,1.3,0.2C484.4,136.9,484.5,136.5,484.4,135.9z M479.6,130.3c-1,0.3-2.2,0.4-3.3-0.1
		c-0.6-0.3-0.2-1,0-1.5c0.4-1.3,0.9-2.6,1.4-4.3c1.1,1.4,1.7,2.7,2,4C479.9,129,480.7,129.9,479.6,130.3z"/>
	<path fill="#FFFFFF" d="M442,135.4c-1.5-4.3-3-8.6-4.5-13c-0.3-1-0.9-1.3-1.9-1.3c-1,0-1.3,0.6-1.5,1.3c-1.3,4-2.7,8-4,11.9
		c-0.3,0.8-1.3,2.3,0.4,2.5c1.1,0.1,1.1-1.2,1.6-1.9c0.6-1,0.2-2.7,2-3c3.1-0.6,4.3,0,5.4,3c0.2,0.6,0.5,1.2,0.9,1.7
		c0.2,0.3,0.9,0.3,1.3,0.2c0.2,0,0.4-0.6,0.4-0.7C442,135.8,442,135.6,442,135.4z M435.2,130.4c-1.3-0.1-1.7-0.4-1.2-1.7
		c0.5-1.4,1-2.9,1.5-4.6c1.1,1.2,1.2,2.6,1.7,3.8C438.4,130.2,437.2,130.5,435.2,130.4z"/>
	<path fill="#FFFFFF" d="M315.7,135.6c-1.5-4.4-3-8.8-4.5-13.2c-0.3-0.9-0.9-1.1-1.7-1.1c-0.9,0-1.3,0.5-1.6,1.3
		c-1.5,4.3-3,8.7-4.4,13c-0.2,0.5-0.5,1.1,0.3,1.4c0.6,0.2,1.1,0,1.4-0.5c0.3-0.6,0.6-1.2,0.7-1.8c0.3-2.1,1.5-2.5,3.5-2.6
		c2.1,0,3.3,0.6,3.7,2.7c0.1,0.6,0.4,1.3,0.7,1.8c0.3,0.6,0.9,0.5,1.5,0.5c0.4-0.1,0.6-0.4,0.6-0.8
		C315.8,136,315.7,135.8,315.7,135.6z M308.6,130.4c-0.9-0.1-1.4-0.4-1.1-1.4c0.5-1.6,1.1-3.3,1.9-5.4c0.6,1.7,1.1,2.9,1.5,4.1
		C311.8,130.3,311.3,130.8,308.6,130.4z"/>
	<path fill="#FFFFFF" d="M177,135.1c-1.3-4-2.7-8-4-11.9c-0.3-1-0.6-1.9-2-1.9c-1.5,0-1.6,1.2-1.9,2.1c-1.3,3.6-2.5,7.2-3.7,10.9
		c-0.3,0.8-1.5,2-0.1,2.7c1.6,0.8,1.7-1,2-2c0.6-1.9,1.3-3.4,3.4-2.8c2.7,0,2.8,0,4.3,3.6c0.4,0.9,0.8,1.6,1.8,1.2
		C178,136.5,177.2,135.6,177,135.1z M170.4,130.4c-1.3-0.1-1.6-0.6-1.2-1.7c0.2-0.6,0.4-1.2,0.6-1.8c0.3-0.8,0.7-1.7,1.2-3.1
		c0.6,1.8,1,2.9,1.4,4C173.3,130.3,173,130.6,170.4,130.4z"/>
	<path fill="#FFFFFF" d="M273.3,135.8c-0.1-0.3-0.3-0.8-0.4-1.2c-1.3-3.8-2.6-7.6-3.9-11.4c-0.3-1-0.4-2-1.9-2c-1.4,0-1.6,1-2,2
		c-1.2,3.6-2.5,7.2-3.6,10.8c-0.3,0.9-1.5,2.3,0,2.9c1.5,0.6,1.6-1.2,1.9-2.1c0.5-2,1.6-2.8,3.7-2.7c2.2,0,3.3,0.7,3.7,2.8
		c0.1,0.6,0.4,1.2,0.7,1.8c0.3,0.5,0.7,0.5,1.2,0.4C273.3,136.8,273.5,136.4,273.3,135.8z M268.8,130.1c-0.9,0.7-2.2,0.3-3.2,0.2
		c-0.9-0.1-0.6-0.8-0.4-1.3c0.5-1.6,1.1-3.1,1.9-5.4c0.7,2,1.1,3.1,1.4,4.3C268.8,128.6,269.5,129.6,268.8,130.1z"/>
	<path fill="#FFFFFF" d="M115.8,66.4c-1.7,0-0.8-1.8-1.8-2.3c0.9-2.9-0.5-4.9-2.6-6.5c-2.6-2.2-5.8-3.2-9.1-4
		c-2.8-0.6-5.6-1.2-8.4-1.9c-2.5-0.6-4.7-1.8-6.2-5c4.5,0.7,8.4,1.2,12.4,1.8c-0.2,0.7-0.5,1-0.9,1.1c-1.2-0.1-2.4-0.3-3.7-0.5
		c-1.1,0.2-1.6,0.6-0.2,1.1c1.6,0.6,3.4,1.1,5.1,1.5c3.7,1,7.6,1.5,10.8,3.7c3.1,2.1,5.6,4.5,4.2,8.8c-0.1,0.2-0.1,0.4-0.1,0.5
		C115.3,65.4,115.7,65.9,115.8,66.4z"/>
	<path fill="#FFFFFF" d="M86.6,109.9c-4.7-0.6-9.2-0.7-13.5-1.8c-0.2-0.6,0.1-0.9,0.4-1c0.3,0.1,0.6,0.1,0.9,0.2
		c1.8-0.7,3.9,1.7,6.1-0.4c-2.5-0.7-4.6-1.4-6.7-2c-2.2-0.6-4.5-1.2-6.7-1.9c-6.3-2-8.8-5.8-7.6-11.4c0,0-0.1,0-0.1-0.1c0,0,0,0,0,0
		c0.1-0.1,0.2-0.2,0.3-0.3c0.5,0.2,0.9,0.3,1.4,0.5c-1.2,3.4-0.8,5,2,7.3c2.3,2,5,3.1,8,3.8c3.4,0.8,6.9,1.5,10.3,2.4
		C83.5,105.7,85.5,107,86.6,109.9z"/>
	<path fill="#FFFFFF" d="M218.6,137c-4.3-0.1-4.2-0.1-4.2-4.4c0-2.3,0-4.6,0-6.9c0-1.1-0.6-3.8,0.8-4.4c0.7-0.3,1.7-0.1,2.4-0.1
		c1.1,0,2.2,0,3.2,0c0.6,0,1.7-0.1,1.9,0.6c0.2,0.8-0.6,1.1-1.2,1.1c-1.6,0-4.2-0.4-5.1,1.3c-0.4,0.7-0.3,1.5-0.1,2.2
		c0.2,1,0.7,1.4,1.7,1.4c1,0,2.1,0,3.1,0c0.6,0,1.3,0,1.3,0.9c0,0.7-0.7,0.9-1.3,0.9c-1.5,0.1-3.9-0.2-4.7,1.5c-0.6,1.3-0.3,4,1.5,4
		c0.8,0,1.7-0.1,2.5,0c1,0.2,2.7-0.8,2.7,0.9c0,0.9-0.9,0.9-1.6,0.9C220.6,137,219.6,137,218.6,137z"/>
	<path fill="#FFFFFF" d="M376.2,134.1c0.9-2.7,1.9-5.4,2.8-8.1c0.4-1.2,0.7-2.3,1.2-3.5c0.4-0.9,0.9-1.6,1.9-1.2
		c1.2,0.5,0.2,1.5,0,2.2c-0.9,2.7-1.9,5.4-2.9,8.1c-0.5,1.3-0.9,2.6-1.4,3.9c-0.3,0.9-0.8,1.5-1.8,1.4c-1.1-0.1-1.3-1-1.5-1.7
		c-1.3-4-2.7-8-3.9-11.9c-0.2-0.7-0.9-1.7,0.3-2.1c1-0.3,1.4,0.6,1.7,1.4c0.4,1.2,0.8,2.5,1.2,3.7
		C374.6,129,375.4,131.6,376.2,134.1z"/>
	<path fill="#FFFFFF" d="M539.5,129c0-1.8,0-3.5,0-5.3c0-0.9-0.2-2.4,1.1-2.5c1.4-0.1,2.9,0,4.3,0c0.8,0,3-0.4,3,0.8
		c0,0.7-0.6,0.8-1.1,0.9c-1,0.1-2.1,0.1-3.1,0c-1.7-0.2-2.1,0.5-2.2,2.2c-0.1,0.9-0.1,2.1,0.9,2.6c0.4,0.2,0.9,0.2,1.4,0.2
		c0.8-0.1,1.6-0.1,2.5-0.1c0.5,0,1.2-0.1,1.3,0.7c0.1,0.9-0.6,1-1.3,1.1c-0.8,0-1.7,0.1-2.5,0c-2.2-0.2-2.4,1.8-2.3,3.6
		c0.2,1.9,1.6,2.3,3.3,2.1c1.1-0.1,3.2-0.9,3.3,0.7c0,1.8-2.1,0.9-3.2,0.9c-5.4,0.1-5.4,0.1-5.4-5.4
		C539.5,130.7,539.5,129.9,539.5,129z"/>
	<path fill="#FFFFFF" d="M335.2,122.8c-2.2-0.1-3.8-0.2-4.4,1.6c-0.7,1.9,0.8,2.6,2.2,3.3c0.2,0.1,0.5,0.2,0.8,0.3
		c2.6,1.2,5,3.5,3.5,6.5c-1.4,2.6-5.3,3.3-7.8,2.2c-0.6-0.3-1.3-0.5-1-1.4c0.3-0.9,1-0.6,1.6-0.4c2,0.5,4.8,0.7,5.4-1.8
		c0.4-1.7-0.7-2.6-2.1-3.2c-1.6-0.7-3.4-1.4-4.3-3c-0.7-1.2-0.7-2.7,0-3.9c1.2-2,5.1-3,7-1.9c0.4,0.2,0.9,0.5,0.7,1
		C336.2,123.6,335.3,122.8,335.2,122.8z"/>
	<path fill="#FFFFFF" d="M568.2,137c-0.8,0-1.6,0-2.4,0.1c-0.5,0-1,0-1.4-0.2c-0.9-0.5-1-1.7-0.9-2.6c0.2-3.7,0.1-7.5,0-11.2
		c0-2.2,1.6-1.9,3.3-1.9c1.2,0,2.5,0,3.7,0c0.6,0,1.4,0,1.5,0.8c0,0.9-0.7,0.9-1.4,0.9c-0.8,0-1.5,0.1-2.2,0c-0.5-0.1-0.9-0.1-1.4,0
		c-0.8,0.2-1.2,0.8-1.3,1.5c-0.1,0.8-0.2,1.9,0.2,2.7c0.4,0.8,1.3,0.8,2,0.8c1.2,0,3.5-0.8,3.6,0.7c0,1.9-2.2,1-3.4,0.9
		c-2.1-0.1-2.5,0.9-2.4,2.7c0.1,1.6-0.2,3.3,2.3,2.9c0.1,0,0.2,0,0.3,0c1.3,0.5,3.9-1,3.9,1C572.1,137.9,569.4,136.6,568.2,137z"/>
	<path fill="#FFFFFF" d="M503.6,122.8c-1.5-0.1-3.4-0.3-4.1,1.4c-0.7,1.8,0.8,2.7,2.1,3.5c0.2,0.1,0.5,0.2,0.8,0.3
		c3.5,1.6,4.7,3.9,3.5,6.4c-0.8,1.6-2.6,2.5-4.3,2.7c-1,0.1-5.1,0-4.5-1.8c0.3-0.9,1-0.5,1.6-0.4c0.5,0.1,1.1,0.3,1.6,0.3
		c1.6,0.2,3.1-0.2,3.7-1.9c0.9-2.6-2.1-3.4-3.8-4.2c-2.4-1.2-4.3-4.1-2.2-6.5c1.5-1.6,4.7-2.5,6.7-1.4c0.4,0.2,0.9,0.5,0.7,1.1
		C504.9,123.7,503.9,122.8,503.6,122.8z"/>
	<path fill="#FFFFFF" d="M184.8,129c0-1.7,0.1-3.4,0-5c-0.1-0.8-0.1-1.8,0.6-2.4c0.9-0.7,2.3-0.3,3.3-0.3c0.8,0,1.6,0,2.4,0
		c0.5,0,1.2-0.1,1.6,0.1c0.4,0.2,0.6,0.6,0.4,1.1c-0.2,0.5-0.7,0.5-1.2,0.5c-0.7,0-1.3,0-2,0c-3,0-3.8,1.1-3.1,4.1
		c0.2,0.8,0.6,1.1,1.3,1.1c0.7,0,1.5,0,2.2,0c0.7,0.1,1.8-0.4,2.2,0.4c0.5,1-0.5,1.5-1.3,1.4c-1.5-0.1-3.7-0.7-4.4,1.2
		c-0.5,1.2,1,5.8-1.1,5.8c-1.4,0-1-1.9-1-2.8C184.8,132.4,184.8,130.7,184.8,129z"/>
	<path fill="#FFFFFF" d="M321.2,128.5c1.1-2,2.1-4.1,3.2-6c0.4-0.7,1-1.5,2-1.1c1.2,0.5,0.2,1.2-0.1,1.9c-0.4,0.8-0.9,1.7-1.4,2.4
		c-1.9,2.8-3.3,5.8-2.8,9.4c0.1,0.8,0.2,1.9-0.9,2c-1.3,0.1-1.4-1.1-1.2-2c0.9-4.7-2.3-8.1-3.9-11.9c-0.3-0.7-1.2-1.3,0-1.8
		c1-0.4,1.6,0.5,2,1.3C319.2,124.5,320.2,126.5,321.2,128.5z"/>
	<path fill="#FFFFFF" d="M489.9,128.5c1.2-2.3,2.3-4.1,3.2-6.1c0.5-1,1.3-1.6,2.2-1c1,0.6-0.1,1.3-0.4,1.8c-1.2,2.7-3.3,4.8-3.9,7.7
		c-0.3,1.3-0.3,2.6-0.2,4c0.1,0.9,0.2,2-1,2c-1.4,0-1.2-1.3-1.1-2.1c1-4.7-2.2-7.9-3.9-11.7c-0.3-0.7-1.2-1.3-0.2-1.9
		c0.9-0.5,1.6,0.2,2,0.9C487.6,124.2,488.6,126.1,489.9,128.5z"/>
	<path fill="#FFFFFF" d="M95.7,96.7c-7.5-0.5-14.9-1.5-21.9-4.5c-3-1.3-6.2-1.8-9.5-2.2c-0.2-0.4-0.3-0.9-0.5-1.3
		c0.2-0.1,0.4-0.2,0.5-0.2c0,0.1,0,0.2,0.1,0.3c2.5,0.2,4.9,0.4,7.3,1.2c0.6,0.2,1.3,0.9,1.7,0.3c0.2-0.3,0-0.8-0.2-1.3
		c-0.1,0-0.2-0.1-0.3-0.1l-0.1-0.1c0.1-0.1,0.2-0.2,0.2-0.3c0.5,0,1.2,0.5,1.2-0.5c0.2,0,0.3-0.1,0.4-0.1c0,0,0,0,0,0
		c0,0.3,0,0.5-0.1,0.6c2.7,4.9,7.8,5.7,12.7,6.5c0.7,0.1,1.2,0.1,1.4-0.1c0.2-0.2,0.1-0.6-0.6-1.3c0.1,0,0.3-0.1,0.3,0
		c1.4,2.3,4,2.3,6.2,3c0,0,0,0,0,0C95,96.5,95.3,96.6,95.7,96.7z"/>
	<path fill="#FFFFFF" d="M345.3,128.9c0-1.8,0.1-3.7,0-5.5c-0.1-1-0.2-2.1,1.2-2.1c1.7,0.1,0.9,1.8,1,2.7c0.1,2.7,0.2,5.4,0,8.1
		c-0.2,2.4,0.5,3.4,3.1,3.2c1-0.1,3-0.9,3.3,0.6c0.4,2-2.3,1.1-3.3,1.1c-1.3,0-4,0.5-4.8-1c-0.4-0.7-0.4-1.6-0.4-2.3
		C345.3,132.1,345.3,130.5,345.3,128.9z"/>
	<path fill="#FFFFFF" d="M276.1,129.1c0-2.2-0.2-4.5,0-6.7c0.1-0.7,0.5-1.2,1.2-1c0.8,0.2,0.8,0.9,0.8,1.6c0,3.3,0.1,6.5-0.1,9.8
		c-0.1,2.2,0.7,2.7,2.7,2.7c1.1,0,3.5-1,3.7,0.7c0.1,1.7-2.6,0.9-3.5,0.9c-1.2,0-3.7,0.5-4.5-0.9c-0.4-0.6-0.3-1.5-0.4-2.2
		C276,132.3,276.1,130.7,276.1,129.1C276.1,129.1,276.1,129.1,276.1,129.1z"/>
	<path fill="#FFFFFF" d="M516,129.9c0-1.1-0.1-2.2,0-3.3c0.3-2.5-0.2-4.2-3.3-3.6c-0.6,0.1-1.4,0.1-1.5-0.8c0-1.5,3.1-0.9,4-0.9
		c2,0,4.1,0,6.1,0c0.6,0,1.2,0.2,1.2,0.9c0,0.7-0.5,1-1.1,0.9c-3.9-0.8-3.6,1.7-3.5,4.2c0.1,2.7,0,5.4,0,8.1c0,0.5,0.2,1.2-0.3,1.5
		c-0.6,0.5-1.4,0-1.5-0.7c-0.2-0.8,0-1.8,0-2.6C516,132.3,516,131.1,516,129.9z"/>
	<path fill="#FFFFFF" d="M444.7,128.9c0-2.1-0.2-4.4,0-6.5c0.1-0.7,0.4-1.2,1.2-1.1c0.8,0.1,0.9,0.8,0.9,1.5c0,3.3,0.1,6.5,0,9.8
		c-0.1,2,0.3,2.9,2.6,2.8c1.3,0,3.8-1,3.9,0.9c0,1.5-2.5,0.8-3.8,0.8c-5.3,0-4.6,0.7-4.6-4.5C444.6,131.3,444.7,130.1,444.7,128.9z"
		/>
	<path fill="#FFFFFF" d="M211,129.2c0,1.7,0,3.3,0,5c0,1,0.3,2.7-1,2.8c-1.1,0.1-1.1-0.7-1.2-1.5c0-2.3,0-4.5,0-6.8
		c0-2.1-0.2-4.4,0-6.5c0.2-1.5,2-1.2,2.2,0.2C211.2,124.7,211,127,211,129.2z"/>
	<path fill="#FFFFFF" d="M386.7,129.4c0,2,0,3.9,0,5.9c0,0.7,0.1,1.6-1,1.7c-1.1,0.1-1.1-0.8-1.1-1.5c0-4.2,0-8.4,0-12.6
		c0-0.8,0.1-1.6,1.1-1.5c1,0.1,1,0.9,1,1.7C386.7,125.1,386.7,127.3,386.7,129.4C386.7,129.4,386.7,129.4,386.7,129.4z"/>
	<path fill="#FFFFFF" d="M122.6,58.5c-0.6,0.3-1.3-2-1.8,0c-0.1-0.1-0.2-0.2-0.3-0.3c-3.3-3.7-7.5-5.7-12.1-7.1
		c-3-0.9-6.1-1.2-9.2-1.5c-1.2-0.1-2.4-0.3-3.7-0.5c1.5-0.5,3.2,0.4,4.6-0.6c7.5,0.8,14.6,2.5,20.5,7.6
		C121.3,56.8,122.5,57.2,122.6,58.5z"/>
	<path fill="#FFFFFF" d="M74.5,107.2c-0.5,0.2-1.1,0.3-1.3,0.9c-6.2-0.9-12.2-2.2-17.3-6c-0.8-0.6-1.5-1.3-2.2-2
		c0.4-0.2,1,0,1.3-0.6c0,0,0.1,0,0.1,0c0,0,0,0.1,0,0.1c3.1,2.3,6.4,4.4,10.1,5.6c2.8,0.9,5.7,1.3,8.5,1.9
		C73.8,107.1,74.2,107.1,74.5,107.2z"/>
	<path fill="#FFFFFF" d="M98.1,65.1c0.4,0.6,1,1,0.9,1.9c-0.2-0.1-0.3-0.2-0.5-0.2v0c-0.2-0.2-0.3-0.4-0.5-0.6c0,0,0,0,0,0
		c-0.8-0.8-1.7-1.5-2.8-1.9c-3-1-6.1-1.7-9.3-2.2c0,0-0.1,0-0.2,0c0-0.4-0.1-0.8-0.1-1.3c4.6,0.5,9.3,1,13.5,3.4
		C98.7,64.5,97,63.5,98.1,65.1z"/>
	<path fill="#FFFFFF" d="M285.2,15.5c-1-1.1-2.1-1.4-3.5-0.9c-0.8,0.3-1.7,0.4-2.6,0.6c-1,0.3-1.9,0.6-2.8,1
		c-1.6,0.7-3.4,1.4-4.6,2.6c1.1-4.7,1.6-5,6.2-5c2.2,0,4.4-0.1,6.6,0C285.7,13.8,286.7,14.2,285.2,15.5z"/>
	<path fill="#FFFFFF" d="M229,15.4c-1.5-1.5-3.6-1.2-5.5-1.2c-2.4,0.1-4.7-0.1-7.1,0c-1.4,0-2.7,0.6-3.4,1.8
		c-0.8,1.3-0.5,3.5-1.9,4.3c0.1-1.9,0.1-4,1.5-5.5c1.1-1.2,2.8-1.2,4.3-1.2c2.8,0,5.5,0,8.3,0C226.5,13.6,229.5,13.1,229,15.4z"/>
	<path fill="#FFFFFF" d="M419.6,138.2c0.8-0.9,0.2-2.3,0.8-3.3c0.3-0.5,1.2-0.9,1.8-0.7c0.7,0.2,0.4,0.9,0.2,1.4
		c-0.6,1.5-0.5,3.5-2.5,4C419.3,139.8,419.6,138.8,419.6,138.2z"/>
	<path fill="#FFFFFF" d="M546.3,89.4c3.5,3.3,2.4,8.6-2.2,10.6c0.9-1.6,2.8-2.6,3.2-4.6C547.9,93.3,546.8,91.4,546.3,89.4z"/>
	<path fill="#FFFFFF" d="M111.3,66.4c-3.8,1.3-7.3,0.3-10.6-1.7C104.2,65.4,107.6,67,111.3,66.4z"/>
	<path fill="#FFFFFF" d="M262.6,38.3c0.2,1.1-0.3,2.5-1.4,3c-1.2,0.6-1.8-0.9-1.8-1.9C260.7,39.6,261.9,39.6,262.6,38.3z"/>
	<path fill="#FFFFFF" d="M545.2,114.1c1.1,0,2.6,2.2,3.3-0.5c0.9,0.2,1.3,0.8,1.1,1.6c-0.2,1-1.2,0.6-1.8,0.7
		C546.5,115.8,545.4,115.6,545.2,114.1z"/>
	<path fill="#FFFFFF" d="M271.7,42.3c0.7-2.3,1.4-4.6,3.3-6.2C274.2,38.3,273.5,40.6,271.7,42.3z"/>
	<path fill="#FFFFFF" d="M491.4,91c-1.2-2-3.6-2.8-4.6-4.9C488.9,87.2,491,88.4,491.4,91z"/>
	<path fill="#FFFFFF" d="M253.6,27.2c-2.2-0.8-2.3-2.6-2.1-4.5C252.6,24,253.4,25.4,253.6,27.2z"/>
	<path fill="#FFFFFF" d="M512.6,84.4c-1.4,0-2.9,0-4.3,0C509.7,82.3,511.2,82.7,512.6,84.4z"/>
	<path fill="#FFFFFF" d="M544,100c-0.8,1.3-2.1,1.2-3.4,1.1C541.4,99.4,542.9,100.3,544,100z"/>
	<path fill="#FFFFFF" d="M283,19.4c0.3-1.4,0.6-2.8,2.1-3.5C285,17.5,284.2,18.6,283,19.4z"/>
	<path fill="#FFFFFF" d="M54.9,99.5c0,0-0.1-0.1-0.1-0.1c0,0,0.1,0,0.1,0C54.9,99.4,54.9,99.5,54.9,99.5z"/>
	<path fill="#FFFFFF" d="M59.6,91.2c0,0.1-0.1,0.3-0.1,0.4c0,0-0.1,0-0.1-0.1c0,0,0,0,0,0C59.4,91.4,59.5,91.3,59.6,91.2z"/>
	<path fill="#FFFFFF" d="M74.7,87.7C74.7,87.7,74.7,87.7,74.7,87.7c0,0.3,0,0.5-0.1,0.7c-0.1-0.2-0.2-0.4-0.3-0.6
		C74.5,87.7,74.6,87.7,74.7,87.7z"/>
	<path fill="#FFFFFF" d="M100.9,71.2c-0.1-1.3-0.3-2.6-1.3-3.7c-0.2-0.2-0.4-0.4-0.6-0.6h0c-0.3-0.3-0.7-0.6-1-0.9
		c0.2,0.2,0.3,0.4,0.5,0.6v0c0.2,0.2,0.3,0.4,0.5,0.6c0,0,0.1,0.1,0.1,0.1c0.5,1.6,1,3.2,1.5,4.7c0.2,0.6,0.4,1.2,0.6,1.8
		C101,73,101,72.1,100.9,71.2z"/>
	<path fill="#FFFFFF" d="M102.3,70.6c-0.1,0-0.2,0-0.3-0.1c0.1,0.1,0.2,0.2,0.3,0.3C102.3,70.8,102.3,70.7,102.3,70.6z"/>
	<path fill="#FFFFFF" d="M64.3,88.4c0,0.1,0,0.2,0.1,0.3c-0.2,0-0.4,0-0.6,0C64,88.6,64.1,88.5,64.3,88.4z"/>
	<path fill="#FFFFFF" d="M73.3,88.8c-0.1,0-0.2-0.1-0.3-0.1l-0.1-0.1c0.1-0.1,0.2-0.2,0.2-0.3C73.1,88.5,73.2,88.6,73.3,88.8z"/>
	<path fill="#FFFFFF" d="M101.2,73.9c-0.2-0.6-0.4-1.2-0.6-1.8c-0.5-1.6-1-3.2-1.5-4.7c0-0.1-0.1-0.3-0.1-0.4
		c0.8,0.5,1.2-0.4,1.9-0.5c-0.2,0.4-0.3,0.7-0.4,1h0c-0.2,1.3,0.8,2.2,1.6,3.1c0.1,0,0.2,0,0.3,0.1c0,0.1,0,0.2,0,0.2
		C100.5,71.3,101.7,72.9,101.2,73.9z"/>
	<path fill="#FFFFFF" d="M89.4,66.4c-2.2-0.2-3-2.3-4.6-3.4c-0.7-0.5,0-1.1,0.8-1c-0.7,0.5-0.4,1,0,1.3
		C87.1,64.1,88.1,65.5,89.4,66.4z"/>
</g>
</svg>
