<?xml version="1.0" encoding="utf-8"?>
<!-- Generator: Adobe Illustrator 23.0.3, SVG Export Plug-In . SVG Version: 6.00 Build 0)  -->
<svg version="1.1" id="Layer_1" xmlns="http://www.w3.org/2000/svg" xmlns:xlink="http://www.w3.org/1999/xlink" x="0px" y="0px"
	 viewBox="0 0 595.3 158.2" enable-background="new 0 0 595.3 158.2" xml:space="preserve">
<g>
	<path fill="#890303" d="M64.3,90c-1.1,0.6-2.2,1.1-3.3,1.7c-0.6,0.3-1.1,0.1-1.6-0.1c-1.8-1-2.9-2.6-3.7-4.4
		c-1.5-3-3.1-5.9-4.9-8.8c-1-1.6-2.4-2.8-4-3.8c-0.7-0.4-1.4-0.7-2.1-0.2c-0.8,0.5-0.9,1.4-0.7,2.2c0.2,0.9,0.7,1.7,1.1,2.6
		c3.3,6.4,6.4,13,9.6,19.5c0.2,0.3,0.2,0.7,0.2,1.1c-0.3,0.7-0.8,0.8-1.4,0.4c-1.2-0.7-2-1.9-2.8-2.9c-2.7-3.5-6-6.3-10-8.3
		c-1.6-0.8-3.1-0.9-4.3,0.5c-1.2,1.4,0.2,2.4,0.9,3.4c4.7,6.4,9.4,12.8,15.6,17.9c8.9,7.3,19.4,9.5,30.4,10.8c6.5,0.8,13,1.6,19,4.4
		c4.8,2.3,8.8,5.5,11.8,10c0.8,1.2,0.7,1.8-0.4,2.7c-2.5,2-5.4,3-8.6,3c-11.8,0-23.5,0.1-35.3,0c-8.5-0.1-13.9-5.6-14.2-14.1
		c0-1.7,0-3.4-0.2-5c-0.6-6.9-5.7-11.9-12.6-12.4c-2-0.1-3.9,0-5.9-0.2c-7.4-0.5-12.7-5.6-12.9-12.9c-0.3-12.4-0.3-24.8,0-37.3
		c0.2-7.3,5.7-12.4,13-12.8c1.3-0.1,2.6-0.1,3.9-0.1c4.2,0.1,7.9-1.2,10.9-4.3c0.9-0.9,1.4-1.4,2.2,0.1c6.2,11.2,16,16.5,28.4,17.7
		c1,0.1,2,0.3,3,0.5c0.3,0.3,0.4,0.6,0.3,0.9c0,0.2-0.1,0.5-0.1,0.7c0.9,1.8,2.4,2.8,4.1,3.7c3.8,3.5,5.2,8.3,6.8,13
		c0.7,2,1.7,3.7,3.3,5.1c0.6,0.5,1.2,1.1,2,0.6c0.8-0.5,0.4-1.3,0.3-2c-0.7-3.1-1.7-6.1-1.8-9.3c0.1-1.1-0.2-2.5,1.5-2.8
		c1.8,0.4,2.5,1.8,3.2,3.2c1.3,2.6,2.4,5.2,3.5,7.9c0.9,2.2,2.3,4,4.1,5.5c0.6,0.5,1.3,0.8,2,0.3c0.5-0.3,0.7-0.9,0.5-1.5
		c-1.9-5.3-2.9-10.9-4.9-16.2c-0.2-0.4-0.5-0.7-0.9-1.1c-1.5-0.9-3.1-0.3-4.6-0.5c-1.3,0-2.5-0.5-3.8-0.8c-0.7,0-1.5,0.4-2.1-0.1
		c-0.2-0.2-0.4-0.4-0.5-0.6c-0.3-0.4-0.7-0.8-0.9-1.3c-0.8-1.9,0.2-1.8,1.5-1.3c0.4,0.6,1.2,0.3,1.7,0.6c3.4,1.3,6.8,2.6,10.6,1.7
		c1.1-0.6,2.2-1.1,2.7-2.3c1.4-0.2,1.2,1.5,2.2,1.8c2,1.4,2.9,3.6,4,5.7c1.2,2.4,2.5,4.8,4,7.1c1,1.5,2.2,2.8,3.9,3.5
		c1.9,0.8,2.9-0.2,2.6-2.1c-0.1-0.8-0.6-1.6-1-2.3c-3.1-5.8-5.7-11.7-8.8-17.5c-0.3-0.5-0.5-1-0.5-1.6c0.7-2.4,1.4-0.7,2.2,0
		c3.3,3.5,6.5,7.1,11.1,9.2c1.6,0.7,3,1.1,4.3-0.3c1.4-1.5-0.1-2.6-0.9-3.6c-4.8-6.6-9.6-13.1-16.1-18.2c-7-5.4-14.9-8.3-23.6-9.5
		c-7.2-1-14.5-1.6-21.5-3.8c-6.5-2.1-11.9-5.7-15.7-11.5c-0.9-1.3-0.6-2,0.5-2.8c2.4-1.8,5.1-2.8,8-2.8c12.1,0,24.3-0.1,36.4,0
		c7.7,0.1,13.1,5.5,13.5,13.2c0.2,2.9-0.2,5.8,0.7,8.6c1.5,5.1,5.9,9,11.3,9.5c2.1,0.2,4.3,0.1,6.4,0.2c7.4,0.4,13,5.6,13.2,13
		c0.2,12.4,0.2,24.8,0,37.2c-0.1,7.1-5.6,12.3-12.7,12.9c-1.4,0.1-2.8,0.1-4.2,0.1c-4.2-0.1-7.9,1.1-10.8,4.2
		c-0.8,0.9-1.5,1.4-2.2-0.1c-5.2-10.1-14-15.1-24.7-17.4c-0.4-0.5-1-0.3-1.6-0.3c-2.4,0.1-4.4-0.6-6.1-2.4
		c-4.2-2.3-6.4-6.3-8.2-10.5c-0.9-2.2-1.5-4.6-2.5-6.8c-0.7-1.6-1.7-2.9-3.1-3.9c-0.5-0.4-1.1-0.8-1.8-0.5c-0.7,0.4-0.4,1.2-0.3,1.8
		c1.3,4.5,1.6,9.1,2.6,13.7c-0.1,1.3-0.7,1.4-1.7,1c-2.9-2.9-4.1-6.8-5.9-10.4c-0.9-1.8-1.6-3.6-2.6-5.3c-0.7-1.2-1.6-2.3-2.8-3.1
		c-0.7-0.4-1.4-0.6-2.1-0.2c-0.8,0.5-0.6,1.3-0.3,2c2.1,5.4,2.8,11.2,5,16.6C64.5,88.9,64.6,89.5,64.3,90z"/>
	<path fill="#F5911D" d="M229,15.4c0,19-0.1,37.9,0,56.9c0,2.4-0.5,3.4-3.1,3.1c-2-0.2-4.1-0.2-6.2,0c-2,0.2-2.5-0.6-2.5-2.5
		c0.1-12.1,0.1-24.3,0.1-36.4c0-1.4,0-2.9,0-5.1c-2.5,3.1-2.9,6.2-3.9,9c-3.9,11.1-7.7,22.3-11.4,33.5c-0.4,1.1-0.9,1.5-2,1.5
		c-2.6,0-5.4,0.6-7.8-0.2c-2.6-0.9-2-4.2-2.8-6.5c-4.2-11.9-8.3-23.8-12.4-35.7c-0.1-0.2-0.3-0.4-1-1.4c0,2.6,0,4.5,0,6.4
		c0,11.6-0.1,23.2,0,34.7c0,2.3-0.7,3-2.9,2.8c-1.2-0.1-2.4,0-3.6,0c-5.5,0-5.6,0-5.5-5.4c0.3-18,0.3-36,0.1-54.1
		c0-1.4,0.6-2.1,2-2.1c4.1,0,8.2,0,12.3,0c1.4,0,1.8,0.9,2.2,2.1c4.9,14.1,9.8,28.2,14.8,42.3c0.2,0.5,0.3,1.1,1.3,1.5
		c4.7-13.1,9.4-26.2,14.1-39.3c2.5-7.7,1.9-6.2,9.1-6.4c2.1,0,4.1,0,6.2,0C227.5,13.9,228.5,14.2,229,15.4z"/>
	<path fill="#8B0305" d="M394.5,60.4c1.5-4,2.7-7.4,3.9-10.7c4-11.2,8.1-22.5,12-33.8c0.6-1.7,1.4-2.2,3-2.1c3.6,0.1,7.3,0.1,10.9,0
		c1.6,0,2.3,0.3,2.3,2.1c-0.1,19.2-0.1,38.3,0,57.5c0,1.7-0.7,2-2.2,1.9c-2.3-0.1-4.7-0.2-7,0c-2,0.2-2.5-0.6-2.5-2.5
		c0.1-12.6,0-25.2,0-37.8c0-1.1,0-2.2-0.6-3.5c-1.2,3.4-2.5,6.8-3.6,10.3c-3.6,10.5-7.3,21-10.8,31.5c-0.5,1.6-1.3,2.1-3,2.1
		c-7.7,0-7.6,0-10-7.2c-4-11.9-8.2-23.8-12.3-35.7c-0.1-0.2-0.3-0.4-0.5-0.7c-0.9,0.9-0.5,2-0.5,2.9c0,12.6-0.1,25.2,0,37.8
		c0,2.1-0.5,3-2.7,2.8c-2.2-0.2-4.5-0.1-6.7,0c-1.7,0.1-2.3-0.5-2.2-2.2c0.1-4.5,0-9,0-13.5c0-14.3,0.1-28.6,0-42.9
		c0-2.3,0.5-3.2,2.9-3c3.2,0.2,6.4,0.2,9.5,0c2.5-0.2,3.6,0.7,4.4,3.1c4.6,13.6,9.4,27.2,14.2,40.7
		C393.5,58.3,393.9,59.1,394.5,60.4z"/>
	<path fill="#8A0304" d="M349.2,75.4c-4,1.2-6.2-1-7.5-5.3c-0.9-3-2.5-5.8-3.6-8.8c-0.5-1.3-1.3-1.8-2.7-1.8c-6,0.1-11.9,0.1-17.9,0
		c-1.4,0-2.2,0.5-2.7,1.8c-1.6,4.1-3.4,8.1-5,12.2c-0.6,1.4-1.2,2.1-2.9,2c-2.7-0.2-5.4-0.2-8.1,0c-2.1,0.1-2.6-0.4-1.7-2.4
		c3.6-8.5,7.1-17,10.7-25.6c4.3-10.4,8.7-20.7,12.9-31.2c0.7-1.7,1.5-2.4,3.5-2.4c6.2,0.1,6.2,0,8.6,5.5
		c7.6,17.8,15.1,35.6,22.7,53.3c0.9,2.2,0.6,3-1.8,2.7C352.4,75.2,351.2,75.4,349.2,75.4z"/>
	<path fill="#8A0304" d="M516.1,75.4c-6,0-6,0-3.7-5.7c7.1-17.4,14.2-34.8,21.2-52.3c0.8-2.1,1.9-2.8,4.1-2.7
		c5.7,0.2,5.7,0.1,7.9,5.3c7.4,17.6,14.8,35.2,22.3,52.8c0.9,2.2,0.6,2.7-1.7,2.6c-3.1-0.2-6.7,0.8-9.1-0.5c-2.4-1.3-2.6-5.3-4-8.1
		c-1.2-2.3-1.3-5.7-3.4-6.8c-2-1.1-4.9-0.3-7.4-0.4c-3.9,0-7.8,0.1-11.8,0c-1.5,0-2.1,0.5-2.7,1.8c-1.5,3.7-3.2,7.4-4.5,11.1
		c-0.8,2.2-1.9,3.2-4.2,2.8C518.2,75.3,517.2,75.4,516.1,75.4z"/>
	<path fill="#8A0204" d="M501.9,32.1c-3,0.6-5.8-0.8-8.9-3.4c-6-5.1-13.3-5.8-20.5-2.4c-7.8,3.7-11.5,10.4-11.5,19
		c0,15.7,15.9,25.6,29.6,18.3c0.7-0.4,1.6-0.7,2.1-1.4c4.2-5.2,10-2.7,15.1-3c1.7-0.1,0.5,1.4,0.2,2c-2.8,5.1-6.7,9.2-11.9,11.9
		c-11.5,6.1-22.8,5.7-33.2-2c-11-8.2-14.8-19.7-12.1-33c2.5-12.5,12.5-22,24.7-24.1c12.8-2.2,25.2,3.4,32,14.3
		c0.6,1,1.8,2.2,1.4,3.2c-0.5,1.2-2.2,0.4-3.3,0.5C504.6,32.1,503.7,32.1,501.9,32.1z"/>
	<path fill="#F6911E" d="M271.7,42.3c-5.4,7.5-6.2,16.1-5.5,25c0.2,2,0,4.1,0,6.2c0.1,1.4-0.4,2.1-1.9,1.9c-0.1,0-0.2,0-0.3,0
		c-2.9-0.1-6.6,0.9-8.4-0.5c-1.9-1.5-0.5-5.4-0.6-8.3c-0.1-3.3-0.2-6.5,0-9.8c0.2-2.7-0.3-5.2-1.6-7.5c-3.3-5.8-6-11.9-9.1-17.8
		c-2.7-5.2-5.3-10.4-8.1-15.5c-0.8-1.4-0.7-2.3,1.3-2.2c2.2,0.1,4.5,0.2,6.7,0c2.6-0.3,4,0.9,4.9,3.1c0.8,1.9,1.6,3.8,2.5,5.7
		c0.4,1.7,0.9,3.3,2.1,4.5c1.9,4.1,3.9,8.2,5.8,12.2c1.8,1.4,2.2,1.2,3.1-1.1c3-6.5,6-13.1,9.1-19.6c1.2-3.6,3.6-5.3,7.5-4.5
		c1.1,0.2,2.2-0.2,3.3-0.2c1.1,0,2.5-0.4,2.7,1.4c0,0.2,0,0.3-0.1,0.5c-0.7,1.2-1.4,2.3-2.1,3.5c-1.9,5.4-4.9,10.3-7.5,15.4
		c-0.2,0.4-0.3,0.9-0.5,1.3C273.7,38,272.9,40.3,271.7,42.3z"/>
	<path fill="#890305" d="M434.3,44.8c0-9.2,0.1-18.3-0.1-27.5c0-2.2,0.7-2.8,2.7-2.6c2.8,0.3,6.4-1.1,8.1,0.5
		c1.9,1.8,0.6,5.5,0.6,8.3c0,16.3-0.2,32.7,0.3,49c0.1,2.2-0.4,3.1-2.7,2.8c-2.9-0.3-6.8,1.3-8.6-0.6c-1.7-1.7-0.4-5.5-0.5-8.4
		C434.2,59.2,434.3,52,434.3,44.8z"/>
	<path fill="#F29222" d="M259.3,89.5c-2.7,2.3-3.1,5.1-4.2,7.5c-2.6,5.4-4.8,11-7.1,16.6c-0.5,1.1-0.9,2.2-2.4,2.3
		c-1.5,0-1.8-1.2-2.2-2.2c-2.6-6.2-5.2-12.5-7.8-18.8c-0.8-1.9-2.1-3.5-2.6-6.1c-0.9,1.6-0.7,2.7-0.7,3.8c0,6.8,0.1,13.6,0,20.5
		c0,1.2,0.5,2.8-1.7,2.7c-2,0-1.6-1.4-1.6-2.6c0-9,0-17.9,0-26.9c0-1.1-0.2-2.4,1.5-2.4c1.5,0,3.3-0.6,4.1,1.4
		c2.2,5.2,4.5,10.4,6.6,15.6c1.3,3.1,2.6,6.3,4.1,10c2.2-3.1,3.1-6.4,4.5-9.4c2.4-5.3,4.8-10.6,7-16c1-2.5,2.9-1.6,4.5-1.6
		c1.8,0,1.2,1.6,1.2,2.6c0,8.9,0,17.7,0,26.6c0,1.2,0.5,2.8-1.7,2.7c-2.2-0.1-1.6-1.7-1.6-2.9c0-6.5,0-13.1,0-19.6
		C259.3,92.2,259.3,91.1,259.3,89.5z"/>
	<path fill="#F29223" d="M224.6,99.7c-0.2,9.2-7.8,16.7-16.8,16.6c-9.8-0.2-17.2-7.6-16.9-17.2c0.2-8,7.6-16.4,17.4-15.9
		C217.3,83.6,224.8,91,224.6,99.7z"/>
	<path fill="#F19525" d="M322,99.6c0,4.5,0,9,0,13.4c0,1.2,0.2,2.6-1.6,2.7c-2,0.1-1.6-1.4-1.7-2.5c0-3.4,0-6.7,0.1-10.1
		c0-1.6-0.5-2.1-2.1-2.1c-4,0.1-8,0.1-12,0c-1.7,0-2.3,0.6-2.3,2.3c0.1,3.4,0.1,6.7,0.1,10.1c0,1.1,0.1,2.4-1.6,2.3
		c-1.7,0-1.6-1.3-1.6-2.4c0-8.9,0-17.9,0.1-26.8c0-1.1-0.5-2.7,1.5-2.6c1.9,0,1.5,1.5,1.5,2.7c0,3.1,0.1,6.2,0,9.2
		c0,1.5,0.5,2.2,2.1,2.1c4.1-0.1,8.2-0.1,12.3-0.1c1.7,0,2-0.8,2-2.2c-0.1-3.3,0-6.5-0.1-9.8c0-1.2,0.3-2,1.7-2
		c1.5,0,1.6,0.9,1.6,2.1C321.9,90.5,322,95,322,99.6z"/>
	<path fill="#F29320" d="M361.9,83.8c1.5,0,2.2,0.5,2.7,1.6c4,9.5,8,19,12,28.5c0.3,0.6,0.7,1.4-0.1,1.7c-1.2,0.4-2.5,0.5-3.1-0.9
		c-1-2.4-2.3-4.7-2.9-7.2c-0.5-1.9-1.5-2.4-3.2-2.4c-3.6,0-7.3,0-10.9,0c-1.5,0-2.4,0.5-2.9,2.1c-0.8,2.4-1.8,4.7-2.8,7
		c-0.3,0.8-0.6,1.7-1.9,1.8c-2.3,0.1-2.8-0.4-1.8-2.5c3.1-6.8,6.2-13.7,9.2-20.5c1-2.3,2.1-4.7,3-7.1
		C359.8,84.3,360.8,83.7,361.9,83.8z"/>
	<path fill="#F39220" d="M545.2,114.1c-2.6-3.4-5.2-6.8-7.7-10.2c-0.5-0.6-1.2-1.6-1-2.1c0.4-1,1.6-0.4,2.5-0.6
		c0.6-0.1,1.1-0.1,1.7-0.1c1-0.8,2.4-0.2,3.4-1.1l0,0c4.4-3.6,4.9-6,2.2-10.6c-3.6-3.7-8.3-2.6-12.7-2.7c-1.3,0-1,1.2-1,2.2
		c0.1,8.1,0.3,16.2-0.2,24.3c-0.1,1.1,0.3,2.6-1.7,2.5c-1.8-0.1-1.3-1.5-1.3-2.5c0-9,0.1-17.9,0-26.9c0-2.1,0.8-2.5,2.6-2.6
		c3.9-0.1,7.8-0.1,11.7,0.6c3.5,0.7,6.8,4.3,7.2,8c0.6,4.6-1.3,8.8-4.8,10.4c-0.7,0.4-1.6,0.5-2.3,0.9c-1.4,0.6-1.9,1.3-0.6,2.6
		c2.2,2.2,3.6,4.9,5.4,7.4c0.5,0.9,0.7,1.6-0.7,1.6C546.8,115.2,545.8,115.1,545.2,114.1z"/>
	<path fill="#F39221" d="M512.6,84.4c3.8,9.4,7.7,18.9,11.5,28.3c0.4,0.9,1.7,2.1,0.2,2.8c-1.6,0.8-2.8-0.2-3.4-1.8
		c-0.4-1.1-0.9-2.2-1.4-3.3c-2.2-5.4-2.2-5.4-8-5.4c-1,0-2.1,0-3.1,0c-6,0-6,0-8,5.7c-0.5,1.4-1,2.8-1.7,4.1
		c-0.7,1.4-2.2,1.1-3.2,0.7c-1.5-0.6-0.2-1.5,0.1-2.2c4.2-9.6,8.5-19.3,12.7-28.9C509.7,83.4,511.2,83.6,512.6,84.4z"/>
	<path fill="#F29423" d="M422.9,99.8c0-4.3-0.1-8.6,0-12.9c0-1.1-0.9-3,1.4-3c2.3,0,1.6,1.9,1.6,3.1c0.1,3.1,0.3,6.2,0.2,9.2
		c-0.1,1.4,0.5,1.6,1.6,1.6c4.2,0,8.4-0.1,12.6,0c1.5,0,1.9-0.5,1.9-2c-0.1-3.3,0-6.5,0-9.8c0-1.1-0.3-2.4,1.5-2.4
		c1.5,0,1.8,0.9,1.8,2.2c0,9.2,0,18.3,0,27.5c0,1.1,0.1,2.3-1.6,2.3c-1.7,0-1.7-1-1.7-2.2c0-3.5-0.1-6.9,0-10.4c0-1.5-0.4-2.1-2-2.1
		c-3.9,0.1-7.8,0.1-11.8,0c-2-0.1-2.4,0.9-2.4,2.5c0,3.2,0.1,6.3,0.1,9.5c0,1.2,0.3,2.5-1.5,2.7c-2,0.1-1.7-1.3-1.7-2.5
		C422.8,108.8,422.8,104.3,422.9,99.8C422.8,99.8,422.8,99.8,422.9,99.8z"/>
	<path fill="#F2992E" d="M164.2,102c0-6.8,0-11.4,0-16c0-1.3,0.2-2.2,1.8-2.2c1.5,0.1,1.5,1,1.5,2.1c0,3.3,0.1,6.5,0,9.8
		c-0.1,1.8,0.8,2.2,2.4,2.2c3.9-0.1,7.8-0.1,11.8,0c1.9,0,2.5-0.8,2.4-2.5c-0.1-3.2,0-6.3,0-9.5c0-0.9-0.1-1.9,1.3-2
		c1.5-0.1,1.6,0.9,1.6,2c0,9.2,0,18.5,0,27.7c0,1,0.1,2.1-1.5,2.2c-1.7,0.1-1.8-1.2-1.8-2.2c0-3.2,0.1-6.3,0.2-9.5
		c0.1-2-0.5-3.1-2.8-3c-3.6,0.2-7.3,0.2-10.9,0c-2.3-0.1-2.9,0.8-2.8,2.9c0.2,3.2,0.1,6.3,0.1,9.5c0,1.1,0.2,2.4-1.6,2.3
		c-1.6-0.1-1.7-1.2-1.7-2.3C164.4,108.9,164,104.3,164.2,102z"/>
	<path fill="#F19529" d="M266.1,99.7c0-4.5,0.1-9,0-13.4c0-1.8,0.6-2.5,2.4-2.5c4.4,0,8.8,0,13.2,0c1,0,2.2,0,2.2,1.5
		c0,1.6-1.2,1.4-2.2,1.4c-3.4,0-6.7,0.1-10.1,0c-1.6,0-2.1,0.5-2.1,2.1c-0.5,9.1-0.5,9.1,8.5,9.1c1.3,0,2.6,0,3.9,0
		c1.1,0,1.4,0.8,1.5,1.7c0.1,1.1-0.6,1.5-1.6,1.5c-3.4,0-6.7,0.1-10.1,0c-1.7-0.1-2.3,0.5-2.3,2.2c0.1,2.4,0.1,4.9,0,7.3
		c-0.1,1.7,0.6,2.1,2.1,2c2.8-0.1,5.6-0.1,8.4,0c0.9,0,1.9,0.1,2.8,0.3c0.9,0.2,1.1,0.8,1.1,1.7c0,1.1-0.7,1.2-1.5,1.2
		c-4.9,0-9.7,0-14.6,0c-1.7,0-1.6-1.2-1.6-2.4C266.1,108.8,266.1,104.3,266.1,99.7z"/>
	<path fill="#F3931D" d="M491.4,91c-1.6,2.4-3.1,0.8-4.1-0.4c-2.5-2.9-5.7-4-9.4-4.2c-5.5-0.3-9.6,2.3-12.2,6.8
		c-2.7,4.8-1.6,11,1.7,15.1c5.5,6.8,15,6,19.8,0.6c0.4-0.4,0.8-0.8,1.2-1.1c0.9-0.6,2.1-0.8,2.8,0.1c0.6,0.8-0.3,1.5-0.8,2.1
		c-6.4,8.3-18.5,7.3-24.2,1.5c-7.1-7.2-7-18.2,0.6-24.7c4.7-4,12-5.9,20-1C488.5,87.7,490.5,88.8,491.4,91z"/>
	<path fill="#F49425" d="M563.4,115.8c-2,0-3.9-0.2-5.9,0c-2.3,0.2-2.7-0.9-2.7-2.8c0.1-5.5,0.2-11,0.2-16.5c0-3.4-0.1-6.7-0.2-10.1
		c-0.1-1.8,0.4-2.8,2.5-2.7c4.2,0.1,8.4,0,12.6,0.1c1,0,2.4-0.3,2.3,1.6c-0.1,1.8-1.5,1.3-2.5,1.3c-2.9,0-5.8,0.2-8.7,0
		c-2.5-0.2-3,0.9-3.1,3.1c-0.2,8.1-0.2,8.1,7.9,8.2c1.4,0,2.8,0.1,4.2,0c1.2,0,2,0.4,2,1.7c0,1.3-1,1.4-2,1.4
		c-3.1,0-6.2,0.1-9.2-0.1c-2.1-0.1-2.9,0.6-2.8,2.7c0.2,2.8-1.1,6.2,0.5,8.2c1.6,1.9,5.1,0.5,7.8,0.7c1.4,0.1,2.8,0,4.2,0.1
		c1,0.1,1.8,0.4,1.8,1.6c0,1.3-0.8,1.5-1.8,1.5C568.1,115.8,565.8,115.8,563.4,115.8z"/>
	<path fill="#EF9723" d="M334.9,115.7c-2.1,0-4.3-0.1-6.4,0c-1.7,0.1-2.4-0.7-2.3-2.3c0.4-8.9,0.2-17.9,0.1-26.8c0-2.2,0.6-3.1,3-3
		c4,0.2,8,0,12,0c1.2,0,2.3,0,2.3,1.7c0,1.7-1.2,1.3-2.2,1.3c-3.3,0-6.5,0.1-9.8,0c-1.7,0-2.4,0.6-2.3,2.3c0.1,2.3,0.1,4.7,0,7
		c0,1.5,0.6,1.9,2,1.9c3.4-0.1,6.7,0,10.1-0.1c1.1,0,2,0.1,2,1.6c0,1.5-0.7,1.7-1.9,1.6c-3.4,0-6.7,0.1-10.1,0
		c-1.6,0-2.2,0.5-2.1,2.1c0.1,2.5,0.1,5,0,7.6c0,1.6,0.5,2,2.2,1.9c3.3-0.2,6.7-0.1,10-0.1c1.2,0,2,0.1,2,1.6c0,1.5-0.8,1.6-1.9,1.6
		C339.4,115.7,337.1,115.7,334.9,115.7z"/>
	<path fill="#F2921C" d="M381.1,99.6c0-4.2,0-8.4,0-12.6c0-1.2-0.7-3.1,1.6-3.1c2.1,0,1.4,1.8,1.4,3c0.1,7.6,0,15.1,0,22.7
		c0,3.3,0.3,3.4,3.6,3.2c2.6-0.2,5.2-0.1,7.8-0.2c1.2,0,1.7,0.4,1.7,1.6c0,1.2-0.5,1.6-1.7,1.6c-4.2,0-8.4,0-12.6,0
		c-1.6,0-2-0.7-2-2.2C381.1,108.9,381.1,104.3,381.1,99.6z"/>
	<path fill="#EF9628" d="M407.9,101c0-3.8-0.1-7.7,0-11.5c0.1-2.1-0.7-3.2-2.9-2.9c-1,0.1-2,0-3.1,0c-0.8,0-1.2-0.4-1.3-1.2
		c-0.1-0.9,0.3-1.5,1.2-1.6c5.1-0.3,10.3-0.4,15.4,0c0.9,0.1,1.3,0.6,1.2,1.5c0,1-0.7,1.2-1.5,1.3c-0.1,0-0.2,0-0.3,0
		c-1.8,0.4-4-0.9-5.2,0.8c-1,1.4-0.3,3.5-0.3,5.2c0,6.7,0,13.4-0.1,20.1c0,1.1,0.6,2.9-1.6,2.8c-2-0.1-1.6-1.8-1.6-2.9
		C407.9,108.9,407.9,104.9,407.9,101z"/>
	<path fill="#86181C" d="M462.5,124.7c-1.1,3.9-1.9,7-2.8,10.1c-0.3,0.9-0.2,2.2-1.7,2.2c-1.5,0-1.4-1.3-1.6-2.2
		c-1-3.9-2-7.8-2.9-11.6c-0.2-0.7-0.7-1.6,0.5-1.8c1.1-0.3,1.4,0.5,1.6,1.5c0.8,3.4,1.6,6.7,2.9,10.1c0.9-3.2,1.7-6.3,2.6-9.5
		c0.3-0.9,0.2-2.2,1.7-2.2c1.5,0,1.3,1.3,1.6,2.3c0.7,2.8,1.4,5.7,2.1,8.5c0.3,0,0.5,0,0.8,0c0.7-2.7,1.5-5.4,2.2-8.1
		c0.2-0.7,0.4-1.4,0.7-2.1c0.3-0.6,1-0.6,1.5-0.4c0.5,0.2,0.5,0.7,0.3,1.2c-1.3,4.5-2.6,9-3.9,13.4c-0.2,0.8-0.7,1-1.4,1
		c-1.1,0-1.1-0.8-1.3-1.5C464.4,132.2,463.5,128.9,462.5,124.7z"/>
	<path fill="#87181E" d="M293.6,125.5c-0.9,3.2-1.8,6.5-2.7,9.7c-0.2,0.8-0.2,1.7-1.4,1.8c-1.3,0.1-1.5-0.9-1.7-1.8
		c-1-4-2.1-7.9-3.1-11.9c-0.2-0.7-0.7-1.8,0.6-2c1.1-0.2,1.3,0.8,1.5,1.6c0.8,3.3,1.6,6.7,2.9,10.1c0.8-3,1.6-6.1,2.5-9
		c0.3-1,0-2.7,1.8-2.7c1.8,0.1,1.5,1.8,1.7,2.8c0.8,2.8,1.4,5.8,2.6,8.7c0.8-3.1,1.7-6.3,2.5-9.4c0.3-1,0.3-2.4,1.8-1.9
		c1.3,0.4,0.4,1.6,0.2,2.4c-0.9,3.6-2,7.2-3,10.8c-0.3,1-0.2,2.5-1.8,2.5c-1.6,0-1.4-1.4-1.7-2.5c-0.8-3-1.5-6-2.2-8.9
		C293.9,125.6,293.7,125.6,293.6,125.5z"/>
	<path fill="#8D2129" d="M400,133.1c0-3.8,0-6.8,0-9.8c0-0.8-0.2-1.9,0.9-2c1.5-0.1,1.1,1.2,1.1,2.1c0,3.7,0,7.5,0,11.2
		c0,0.9,0.4,2-0.8,2.4c-1.2,0.4-1.8-0.6-2.4-1.5c-2.1-3.4-4.2-6.8-6.8-10.9c0,3.9,0,7.1,0,10.3c0,0.8,0.4,2.1-1.1,2
		c-1.2-0.1-0.9-1.2-0.9-2c0-3.9,0-7.8,0-11.7c0-0.7-0.2-1.6,0.7-1.9c1-0.3,1.8,0.2,2.3,1.1C395.3,125.7,397.4,129.1,400,133.1z"/>
	<path fill="#891920" d="M227.9,125.6c0,3.1,0,6.3,0,9.4c0,0.8,0.3,1.9-1,1.9c-1.3,0-1-1.1-1-1.9c0-3.9,0-7.8,0-11.7
		c0-0.8-0.2-1.8,0.9-2c1.1-0.3,1.7,0.4,2.3,1.2c1.9,3.1,3.8,6.2,5.7,9.3c0.2,0.3,0.4,0.6,1,1.3c0-3.7,0-6.8,0-9.8
		c0-0.8-0.3-1.9,1-1.9c1.2,0,0.9,1.2,1,2c0,3.8,0,7.6,0,11.5c0,0.8,0.3,1.8-0.7,2.2c-1.1,0.4-1.7-0.5-2.2-1.3
		c-2.1-3.4-4.2-6.8-6.3-10.2C228.2,125.5,228.1,125.6,227.9,125.6z"/>
	<path fill="#84161B" d="M354.5,129.2c0-4.9,3.1-8.3,7.5-8.2c4,0.1,6.8,3.4,6.9,7.9c0,4.9-3,8.4-7.4,8.3
		C357.4,137.2,354.5,133.9,354.5,129.2z"/>
	<path fill="#89161F" d="M241.2,129c0-1,0-2.1,0-3.1c0-5.1,0-5.1,5.4-4.7c4,0.3,6.2,1.9,7.2,5.1c1,3.5-0.1,7.5-2.8,9.3
		c-2.6,1.8-5.7,1.6-8.7,1.5c-1.2-0.1-1.1-1.1-1.1-1.9C241.2,133.1,241.2,131,241.2,129C241.2,129,241.2,129,241.2,129z"/>
	<path fill="#83171F" d="M550.9,129.1c0-1.3-0.1-2.6,0-3.9c0.2-1.4-1.1-3.3,1.3-4c2.8-0.8,6.8,0.1,7.7,1.8c1.2,2,0.8,4-0.9,5.5
		c-0.7,0.7-0.8,1-0.1,1.7c1.3,1.5,1.2,3.5,1.8,5.2c0.2,0.5,0.3,1.2-0.5,1.3c-0.6,0.1-1.2-0.1-1.4-0.7c-0.4-1.1-0.6-2.2-0.9-3.2
		c-0.3-1.2-0.8-2.4-2.2-2.7c-1.6-0.4-3.1-0.4-2.8,2c0.1,0.9,0,1.9,0,2.8c0,0.8,0.2,1.8-1.1,1.8c-1.1-0.1-0.9-1-1-1.7c0-1,0-2,0-3.1
		C550.9,131.2,550.9,130.2,550.9,129.1z"/>
	<path fill="#85161F" d="M196.2,129.2c0-1.4-0.2-2.8,0-4.2c0.2-1.3-1-3.1,1.3-3.7c2.9-0.8,6.7,0.1,7.8,1.8c1.2,1.9,0.9,3.8-0.7,5.3
		c-0.9,0.8-1,1.2-0.2,2.2c1.2,1.4,1.2,3.3,1.7,5c0.1,0.5,0.3,1.2-0.5,1.4c-0.7,0.2-1.3-0.1-1.5-0.9c-0.4-1.2-0.7-2.3-1-3.5
		c-0.5-1.8-1.8-2.6-3.6-2.3c-2,0.3-0.8,1.9-1.2,2.9c-0.4,1.2,1,3.7-1.1,3.6c-1.9,0-0.8-2.4-1-3.7
		C196.1,131.8,196.2,130.5,196.2,129.2C196.2,129.2,196.2,129.2,196.2,129.2z"/>
	<path fill="#83131D" d="M417.5,132.7c0,4-0.3,4.3-4.4,4.4c-3.3,0.1-6.2-0.8-7.7-4c-1.5-3.3-1.3-6.5,1.1-9.4c1.8-2.2,6.1-3.3,9-2.4
		c0.5,0.2,1.2,0.3,1.2,1c0,1-0.8,0.8-1.5,0.7c-1.1-0.1-2.2-0.2-3.3-0.1c-3.7,0.4-5.8,3.6-5,7.6c0.7,3.4,3.9,5.5,7.3,4.7
		c1.9-0.4,1.1-1.9,1.2-2.9c0.1-1,0.1-2.1-1.5-2c-0.6,0-1.5,0.2-1.6-0.7c0-1.1,0.9-0.9,1.6-1C417.5,128.4,417.5,128.4,417.5,132.7z"
		/>
	<path fill="#87181A" d="M524.3,128.9c0-2.1,0-4.1,0-6.2c0-0.7,0-1.4,0.9-1.5c1.1-0.1,1.1,0.8,1.1,1.5c0,0.5,0.1,0.9,0,1.4
		c-0.5,2.9,0.6,3.9,3.6,3.7c3.8-0.3,3.8,0,3.9-4.4c0-0.8-0.4-2.1,1-2.1c1.5,0,1.1,1.2,1.1,2.1c0,3.9,0,7.8,0,11.8
		c0,0.8,0.2,1.8-1.1,1.8c-1.3,0-1-1.1-1.1-1.9c0-0.1,0-0.2,0-0.3c-0.2-5.5-0.2-5.4-5.7-5.2c-1.5,0.1-1.9,0.7-1.9,2
		c0.1,1.3,0,2.6,0,3.9c0,0.7-0.2,1.4-1,1.4c-0.9,0-1-0.7-1-1.4C524.3,133.4,524.3,131.1,524.3,128.9z"/>
	<path fill="#87191E" d="M484.4,135.9c0.1,0.5,0,1-0.4,1c-0.4,0-1,0-1.3-0.2c-0.4-0.5-0.7-1.1-0.9-1.7c-0.4-2.1-1.4-3-3.8-3
		c-2.5,0-3.2,1.2-3.7,3.1c-0.3,0.9-0.5,2.4-1.9,1.8c-1.3-0.6-0.2-1.6,0-2.4c1.2-3.8,2.5-7.6,3.8-11.4c0.3-0.9,0.5-1.8,1.8-1.9
		c1.4-0.1,1.7,0.9,2,1.9c1.3,4,2.7,7.9,4.1,11.9C484.2,135.3,484.4,135.7,484.4,135.9z"/>
	<path fill="#8B1821" d="M442.1,136.2c-0.1,0.2-0.2,0.7-0.4,0.7c-0.4,0.1-1,0.1-1.3-0.2c-0.4-0.5-0.7-1.1-0.9-1.7
		c-1.1-2.9-2.3-3.5-5.4-3c-1.8,0.3-1.4,2-2,3c-0.5,0.8-0.5,2.4-1.9,1.8c-1.3-0.5-0.3-1.6,0-2.4c1.3-4,2.7-8,4-11.9
		c0.3-0.8,0.6-1.3,1.5-1.3c1,0,1.6,0.3,1.9,1.3c1.5,4.3,3,8.6,4.5,13C442,135.6,442,135.8,442.1,136.2z"/>
	<path fill="#84141E" d="M315.8,136.1c0,0.4-0.1,0.8-0.6,0.8c-0.6,0.1-1.2,0.1-1.5-0.5c-0.3-0.6-0.6-1.2-0.7-1.8
		c-0.4-2.1-1.6-2.7-3.7-2.7c-2,0.1-3.2,0.5-3.5,2.6c-0.1,0.6-0.4,1.3-0.7,1.8c-0.3,0.6-0.9,0.7-1.4,0.5c-0.8-0.3-0.5-0.9-0.3-1.4
		c1.5-4.3,2.9-8.7,4.4-13c0.3-0.8,0.7-1.3,1.6-1.3c0.8,0,1.4,0.2,1.7,1.1c1.5,4.4,3,8.8,4.5,13.2C315.7,135.8,315.8,136,315.8,136.1
		z"/>
	<path fill="#86151E" d="M170.6,132.1c-2.1-0.6-2.8,0.9-3.4,2.8c-0.3,0.9-0.3,2.7-2,2c-1.3-0.6-0.1-1.8,0.1-2.7
		c1.2-3.6,2.4-7.3,3.7-10.9c0.3-0.9,0.4-2,1.9-2.1c1.4,0,1.7,0.9,2,1.9c1.4,4,2.7,7.9,4,11.9c0.2,0.6,1,1.5-0.2,1.9
		c-1,0.3-1.4-0.4-1.8-1.2C173.4,132,173.3,132,170.6,132.1z"/>
	<path fill="#88181C" d="M273.3,135.8c0.1,0.6,0,1-0.6,1.2c-0.5,0.1-1,0.1-1.2-0.4c-0.3-0.6-0.6-1.2-0.7-1.8
		c-0.4-2.1-1.5-2.8-3.7-2.8c-2.2,0-3.2,0.7-3.7,2.7c-0.2,1-0.4,2.7-1.9,2.1c-1.5-0.6-0.2-2,0-2.9c1.1-3.6,2.4-7.2,3.6-10.8
		c0.3-1,0.6-2,2-2c1.4,0,1.5,1.1,1.9,2c1.3,3.8,2.6,7.6,3.9,11.3C273.1,135,273.2,135.4,273.3,135.8z"/>
	<path fill="#8A2A31" d="M115.8,66.4c-1.6,0-0.8-1.8-1.8-2.3c0.9-2.9-0.5-4.9-2.6-6.5c-2.7-2.2-5.8-3.2-9.1-4
		c-2.8-0.6-5.6-1.2-8.4-1.9c-2.5-0.6-4.6-1.8-6.2-5c4.5,0.7,8.4,1.2,12.4,1.8c-0.5,1.8-2,1-3.1,1.3c2.3,1.2,4.9,1.5,7.3,2.2
		c1.9,0.5,3.8,1.1,5.5,2C115.6,56.9,117,59.8,115.8,66.4z"/>
	<path fill="#902C34" d="M59.6,91.2c0.5,0.2,0.9,0.3,1.4,0.5c-1.2,3.4-0.8,5,2,7.3c2.3,2,5,3.1,8,3.8c3.4,0.8,6.9,1.5,10.3,2.4
		c2.3,0.6,4.2,1.8,5.4,4.7c-4.7-0.6-9.2-0.7-13.5-1.8c-0.3-0.8,0.3-1,0.9-1.3c1.4-0.4,2.7,0.1,4.1,0.1c-3.4-1.2-7-2-10.4-3
		c-3.5-1.1-6.6-2.7-8.5-6C57.9,95.6,57.7,93.3,59.6,91.2z"/>
	<path fill="#85141C" d="M218.6,137c-4.3-0.1-4.2-0.1-4.2-4.4c0-3.2,0.1-6.4,0-9.5c0-1.5,0.5-2,2-1.9c1.8,0.1,3.5,0,5.3,0.1
		c0.6,0,1.2,0.2,1.2,0.9c0,0.7-0.6,0.8-1.2,0.8c-0.7,0-1.5,0-2.2,0c-2.7,0-3.7,1.5-2.8,4.1c0.3,0.8,0.8,0.9,1.5,0.9c1,0,2.1,0,3.1,0
		c0.5,0,1.2,0,1.3,0.7c0.1,0.9-0.6,1-1.3,1c-0.5,0-0.9,0-1.4,0c-3.1,0-4.1,1.5-3.2,4.5c0.2,0.8,0.7,1,1.4,1c0.8,0,1.7-0.1,2.5,0
		c1,0.2,2.7-0.8,2.7,0.9c-0.1,1.4-1.8,0.7-2.8,0.9C219.7,137.1,219.1,137,218.6,137z"/>
	<path fill="#8D181F" d="M376.2,134.1c1.4-4.2,2.6-7.7,3.8-11.2c0.3-1,0.7-2.2,2.1-1.6c1.2,0.5,0.2,1.5,0,2.2
		c-1.4,4-2.8,7.9-4.2,11.8c-0.3,0.9-0.7,1.7-1.9,1.7c-1.1-0.1-1.3-1-1.5-1.7c-1.3-4-2.7-8-3.9-11.9c-0.2-0.7-0.9-1.7,0.3-2.1
		c1-0.3,1.4,0.5,1.7,1.4C373.7,126.3,374.9,130,376.2,134.1z"/>
	<path fill="#851115" d="M539.5,129c0-2,0-3.9,0-5.9c0-0.8-0.1-1.8,1.1-1.9c2.1-0.1,4.3,0,6.4,0c0.5,0,0.9,0.2,0.9,0.8
		c0,0.8-0.6,0.9-1.1,0.9c-1,0-2.1,0.1-3.1,0c-1.7-0.2-2.1,0.5-2.2,2.2c-0.1,2.2,0.5,3.1,2.7,2.8c0.6-0.1,1.3,0,2,0
		c0.5,0,1.2-0.1,1.3,0.7c0.1,0.9-0.6,1-1.3,1.1c-0.8,0-1.7,0.1-2.5,0c-1.7-0.2-2.1,0.6-2.2,2.3c-0.2,2.6,0.5,3.7,3.3,3.4
		c1.1-0.1,3.2-0.9,3.3,0.7c0,1.8-2.1,0.9-3.2,0.9c-5.4,0.1-5.4,0.1-5.4-5.4C539.5,130.7,539.5,129.9,539.5,129z"/>
	<path fill="#8B1923" d="M335.2,122.8c-2.2-0.1-3.8-0.2-4.4,1.6c-0.7,1.9,0.8,2.6,2.2,3.3c0.2,0.1,0.5,0.2,0.8,0.3
		c3.5,1.7,4.7,3.9,3.5,6.4c-1.2,2.4-5,3.5-7.9,2.3c-0.6-0.3-1.3-0.5-1-1.4c0.3-0.9,1-0.6,1.6-0.4c0.6,0.2,1.3,0.3,1.9,0.3
		c1.6,0.1,3-0.3,3.5-2.1c0.4-1.7-0.7-2.6-2.1-3.2c-0.7-0.3-1.4-0.6-2-0.9c-2.6-1.4-3.6-3.8-2.3-6c1.2-2,5.1-3,7-1.9
		c0.4,0.2,0.9,0.5,0.7,1C336.2,123.6,335.3,122.8,335.2,122.8z"/>
	<path fill="#8E181F" d="M568.2,137c-0.8,0-1.3-0.1-1.9,0c-2.2,0.3-2.9-0.5-2.8-2.7c0.2-3.7,0.1-7.5,0-11.2c0-1.4,0.4-2,1.9-1.9
		c1.7,0.1,3.4,0,5,0c0.6,0,1.4-0.1,1.5,0.8c0,0.9-0.7,0.9-1.4,0.9c-0.7,0-1.5,0.1-2.2,0c-2.3-0.4-2.8,0.6-2.8,2.8
		c0.1,1.7,0.6,2.2,2.3,2.2c1.2,0,3.5-0.8,3.6,0.7c0,1.9-2.2,1-3.4,0.9c-2.1-0.1-2.5,0.9-2.4,2.7c0.1,1.6-0.2,3.3,2.3,2.9
		c0.1,0,0.2,0,0.3,0c1.3,0.5,3.9-1,3.9,1C572.1,137.9,569.4,136.6,568.2,137z"/>
	<path fill="#861720" d="M503.6,122.8c-2-0.2-3.6-0.2-4.2,1.6c-0.7,1.9,0.9,2.6,2.2,3.3c0.2,0.1,0.5,0.2,0.8,0.3
		c3.5,1.6,4.7,3.9,3.5,6.4c-1.2,2.4-5,3.5-7.9,2.3c-0.7-0.3-1.2-0.6-1-1.4c0.3-0.9,1-0.5,1.6-0.4c0.5,0.1,1.1,0.3,1.6,0.3
		c1.6,0.2,3.1-0.2,3.7-1.9c0.6-1.8-0.6-2.8-2-3.4c-0.6-0.3-1.2-0.5-1.8-0.8c-2.8-1.4-3.8-3.6-2.6-5.8c1-2.1,5.1-3.3,7.2-2.1
		c0.4,0.2,0.9,0.5,0.7,1.1C504.9,123.7,503.9,122.8,503.6,122.8z"/>
	<path fill="#811118" d="M184.8,129c0-1.7,0.1-3.4,0-5c-0.2-2,0.4-3,2.6-2.7c1.5,0.2,3,0,4.5,0c0.6,0,1.4,0,1.3,0.9
		c-0.1,0.7-0.7,0.8-1.3,0.8c-0.7,0-1.3,0-2,0c-3,0-3.8,1.1-3.1,4.1c0.2,0.8,0.6,1.1,1.3,1.1c0.7,0,1.5,0,2.2,0
		c0.8,0.1,2.2-0.5,2.3,0.8c0,1.4-1.4,1-2.2,0.9c-2.9-0.4-4.1,0.7-3.6,3.6c0.1,0.6,0,1.3,0,2c0,0.7,0,1.4-0.9,1.5
		c-1.1,0.1-1.2-0.7-1.2-1.5C184.8,133.3,184.8,131.1,184.8,129z"/>
	<path fill="#8A2025" d="M321.2,128.5c1.3-2.4,2.3-4.3,3.3-6.2c0.4-0.9,1.1-1.4,2-1c1.1,0.6,0.1,1.2-0.2,1.8
		c-0.4,0.8-0.9,1.7-1.4,2.4c-1.9,2.8-3.3,5.8-2.8,9.4c0.1,0.8,0.3,2.1-1.2,2c-1.2-0.1-1.1-1.3-0.9-2c0.9-4.7-2.3-8.1-3.9-11.9
		c-0.2-0.5-1.2-1.1-0.3-1.6c0.8-0.6,1.6-0.2,2.1,0.7C318.9,124.1,320,126,321.2,128.5z"/>
	<path fill="#8C1D22" d="M489.9,128.5c1.2-2.3,2.3-4.1,3.2-6.1c0.5-1,1.3-1.6,2.2-1c1,0.6-0.1,1.3-0.4,1.8c-0.5,1-1,2-1.7,2.9
		c-1.9,2.6-2.8,5.4-2.4,8.6c0.1,0.8,0.4,2.1-1,2.2c-1.4,0-1.2-1.3-1.1-2.1c1-4.7-2.2-7.9-3.9-11.7c-0.2-0.6-1.3-1.3-0.2-1.9
		c0.9-0.5,1.6,0.1,2,0.9C487.6,124.2,488.6,126.1,489.9,128.5z"/>
	<path fill="#8B242C" d="M88.2,93.4c0.1,0,0.2-0.1,0.3,0c1.7,2.7,4.8,2.3,7.2,3.4c-7.5-0.5-14.9-1.5-21.9-4.5
		c-3-1.3-6.2-1.8-9.5-2.2c-0.2-0.4-0.3-0.9-0.5-1.3c2.1-1.1,4.3-0.4,6.4,0.1c1,0.2,2.1,0.8,2.9-0.4c0.5,0,1.2,0.5,1.2-0.5
		c1.2-0.4,1.4,0.7,1.8,1.3c2.8,4,7.2,4.2,11.3,5C87.8,94.1,88,93.7,88.2,93.4z"/>
	<path fill="#8E232B" d="M345.3,128.9c0-1.7-0.1-3.4,0-5c0.1-1-0.6-2.6,1.2-2.6c1.7,0.1,0.9,1.8,1,2.7c0.1,2.7,0.2,5.4,0,8.1
		c-0.2,2.4,0.5,3.4,3.1,3.2c1.1-0.1,3.4-1,3.4,0.9c0,1.6-2.2,0.8-3.4,0.8c-5.2,0.1-5.2,0-5.2-5.3
		C345.3,130.8,345.3,129.8,345.3,128.9z"/>
	<path fill="#791217" d="M276.1,129.1c0-2,0-4.1,0-6.1c0-0.7-0.2-1.6,1-1.6c1.1,0,1.1,0.8,1.1,1.6c0,3.3,0.1,6.5-0.1,9.8
		c-0.1,2.2,0.7,2.7,2.7,2.7c1.3,0,3.6-1.1,3.7,0.9c0,1.6-2.3,0.8-3.6,0.8c-4.8,0.1-4.8,0-4.8-4.8
		C276.1,131.1,276.1,130.1,276.1,129.1C276.1,129.1,276.1,129.1,276.1,129.1z"/>
	<path fill="#83222C" d="M516,129.9c0-1.1-0.1-2.2,0-3.3c0.3-2.5-0.2-4.2-3.3-3.6c-0.6,0.1-1.4,0.1-1.5-0.8c0-0.9,0.7-0.9,1.4-0.9
		c2.9,0,5.8,0,8.6,0c0.6,0,1.2,0.2,1.2,0.9c0,0.7-0.5,1-1.1,0.9c-3.9-0.8-3.6,1.7-3.5,4.2c0.1,2.7,0,5.4,0,8.1
		c0,0.7,0.2,1.7-0.9,1.7c-1,0-0.9-1-0.9-1.7C516,133.5,516,131.7,516,129.9z"/>
	<path fill="#871D25" d="M444.7,128.9c0-2,0-4.1,0-6.1c0-0.8,0.1-1.5,1.2-1.4c0.9,0.1,0.9,0.8,0.9,1.5c0,3.3,0.1,6.5,0,9.8
		c-0.1,2,0.3,2.9,2.6,2.8c1.3,0,3.8-1,3.9,0.9c0,1.5-2.5,0.8-3.8,0.8c-5.3,0-4.6,0.7-4.6-4.5C444.6,131.3,444.7,130.1,444.7,128.9z"
		/>
	<path fill="#9C3032" d="M211,129.2c0,2,0,4.1,0,6.1c0,0.8,0,1.5-1,1.7c-1.1,0.1-1.1-0.7-1.2-1.5c0-4.3,0-8.5,0-12.8
		c0-0.7,0-1.6,1.1-1.5c1,0.1,1.1,0.8,1.1,1.6C211,125,211,127.1,211,129.2z"/>
	<path fill="#821111" d="M386.7,129.4c0,2,0,3.9,0,5.9c0,0.7,0.1,1.6-1,1.7c-1.1,0.1-1.1-0.8-1.1-1.5c0-4.2,0-8.4,0-12.6
		c0-0.8,0-1.6,1.1-1.5c1.1,0.1,1,1,1,1.7C386.7,125.1,386.7,127.3,386.7,129.4C386.7,129.4,386.7,129.4,386.7,129.4z"/>
	<path fill="#93494B" d="M95.5,49.1c1.5-0.5,3.2,0.4,4.6-0.6c7.5,0.8,14.6,2.5,20.5,7.6c0.8,0.7,1.9,1.2,2,2.5
		c-0.6,0.3-1.3-2-1.8,0.1c-0.7,0.2-1.2-0.3-1.7-0.7c-5.5-5.2-12.4-6.8-19.6-7.6C98.1,50.2,96.4,50.9,95.5,49.1z"/>
	<path fill="#9C484E" d="M74.5,107.2c-0.5,0.2-1.1,0.3-1.3,0.9c-6.2-0.9-12.2-2.2-17.3-6c-0.8-0.6-1.5-1.3-2.2-2
		c0.4-0.2,1,0,1.2-0.6c0.9-0.3,1.6,0.1,2.3,0.7c4.4,3.5,9.6,5,15.1,5.9C73.1,106.2,74.1,106,74.5,107.2z"/>
	<path fill="#871C23" d="M99,64.2c-0.3,0.3-2-0.7-0.9,0.9c0.4,0.6,1.1,1,0.9,1.9c-3.4-1.6-6.7-3.5-10.6-3.8c-1-0.1-2.1-0.2-2.7-1.2
		c0-0.4-0.1-0.8-0.1-1.3C90.2,61.3,94.9,61.7,99,64.2z"/>
	<path fill="#EAAB5E" d="M285.2,15.5c-1-1.1-2.1-1.4-3.5-0.9c-0.3,0.1-0.5,0.2-0.8,0.2c-2.4,0.3-7.7,2.6-9.2,4c1.1-4.7,1.6-5,6.2-5
		c2.2,0,4.4-0.1,6.6,0C285.7,13.8,286.7,14.2,285.2,15.5z"/>
	<path fill="#F7D198" d="M229,15.4c-1-1-2.2-1.2-3.6-1.2c-2.9,0.1-5.8,0.2-8.6,0c-2.7-0.2-3.9,1.2-4.5,3.5c-0.3,1-0.3,2-1.3,2.7
		c0.1-0.9,0-1.9,0.2-2.8c0.9-3.3,2-4,5.5-4c3.4,0,6.8,0,10.3,0C228.3,13.6,229.4,13.7,229,15.4z"/>
	<path fill="#822A33" d="M419.6,138.2c1.1-1.1-0.4-3.8,2.3-4c1.1-0.1,0.7,0.9,0.5,1.4c-0.6,1.5-0.5,3.5-2.5,4
		C419.3,139.8,419.6,138.8,419.6,138.2z"/>
	<path fill="#ECB570" d="M546.3,89.4c3.5,3.3,2.4,8.6-2.2,10.6c0.9-1.6,2.8-2.6,3.2-4.6C547.9,93.3,546.8,91.4,546.3,89.4z"/>
	<path fill="#871C23" d="M111.3,66.4c-3.8,1.3-7.3,0.3-10.6-1.7C104.2,65.4,107.6,67,111.3,66.4z"/>
	<path fill="#FBDAA6" d="M262.6,38.3c0.2,1.4-0.5,2.7-1.6,3.1c-1,0.3-1.5-0.9-1.5-2C260.7,39.6,261.9,39.6,262.6,38.3z"/>
	<path fill="#EBAD5C" d="M545.2,114.1c1.1,0,2.6,2.2,3.3-0.5c0.9,0.2,1.3,0.8,1.1,1.6c-0.2,1-1.2,0.6-1.8,0.7
		C546.5,115.8,545.4,115.6,545.2,114.1z"/>
	<path fill="#F2CF9B" d="M271.7,42.3c0.7-2.3,1.4-4.6,3.3-6.2C274.2,38.3,273.5,40.6,271.7,42.3z"/>
	<path fill="#ECB993" d="M491.4,91c-1.2-2-3.6-2.8-4.6-4.9C488.9,87.2,491,88.4,491.4,91z"/>
	<path fill="#EAAC63" d="M253.6,27.2c-2.2-0.8-2.3-2.6-2.1-4.5C252.6,24,253.4,25.4,253.6,27.2z"/>
	<path fill="#EACFAC" d="M512.6,84.4c-1.4,0-2.9,0-4.3,0C509.7,82.3,511.2,82.7,512.6,84.4z"/>
	<path fill="#F6CE90" d="M544,100c-0.8,1.3-2.1,1.2-3.4,1.1C541.4,99.4,542.9,100.3,544,100z"/>
	<path fill="#EAAB5E" d="M283,19.4c0.3-1.4,0.6-2.8,2.1-3.5C285,17.5,284.2,18.6,283,19.4z"/>
	<path fill="#FAFAFA" d="M74.5,107.2c-3.1-0.7-6.3-1.1-9.4-2c-3.8-1.2-7.1-3.4-10.3-5.7c-3.4-3.8-4.4-8.8-6.9-13.1
		c-1.5-2.6-2.7-5.3-4.1-8c-0.8-1.6-1.4-3.4,0.1-4.6c1.6-1.4,3.1-0.1,4.5,1c2.8,2.1,4.1,5.2,5.8,8.1c1.6,2.9,2.6,6.2,5.4,8.3
		c-1.4,5.8,1.1,9.7,7.5,11.8c2.2,0.7,4.5,1.2,6.7,1.9c2.1,0.6,4.2,1.2,6.7,2C78.3,108.9,76.3,106.5,74.5,107.2z"/>
	<path fill="#FAFAFA" d="M95.5,49.1c4.3,0.7,8.6,0.7,12.8,2c4.8,1.5,9.1,3.6,12.4,7.5c3.4,6.7,6.8,13.4,10.2,20.1
		c0.7,1.4,1,3.1-0.2,4.2c-1.4,1.2-2.9,0.4-4.3-0.7c-3.3-2.5-4.9-6.3-6.8-9.8c-1.1-2.1-2-4.4-4-6c-0.2-0.7-0.7-1.3-0.4-2.1
		c1.4-4.3-1.1-6.7-4.2-8.8c-3.2-2.2-7.1-2.8-10.8-3.7c-1.7-0.4-3.4-0.9-5.1-1.5C94,49.7,94.5,49.3,95.5,49.1z"/>
	<path fill="#FAF9FA" d="M88.2,93.4c1.4,1.5,0.4,1.7-0.9,1.5c-5.1-0.9-10.4-1.6-13-7.1c-1.5-4.8-1.6-10-3.2-14.8
		c-0.7-2.1,1.2-2,2.5-1.5c2.1,0.8,3.4,2.6,4.2,4.6c1,2.3,1.7,4.8,2.6,7.1C82.1,87.2,84.2,91,88.2,93.4z"/>
	<path fill="#FAF9F9" d="M85.7,62c3.2,0.4,6.4,1.1,9.5,2.2c1.5,0.5,2.6,1.8,3.8,2.8c0,0,0,0,0,0c2.3,1.8,1.7,4.5,2.2,6.9
		c0.3,3.1,1.1,6,2,9c0.3,0.9,1,2-0.1,2.8c-1.1,0.7-2.1,0.1-3.1-0.6c-1.9-1.4-3-3.2-3.8-5.4c-1.7-4.7-2.9-9.7-6.7-13.3
		c-1.4-0.9-2.3-2.3-3.7-3.1C85.3,63.1,85,62.5,85.7,62L85.7,62z"/>
	<path fill="#F8FAF9" d="M110.2,68.2c1,0.8,1.4,1.9,1.7,3.1c1.4,4.7,2.4,9.5,4.2,14.1c0.4,1.1,0.5,2.3-0.7,2.9
		c-1.1,0.6-2.1,0.5-3.1-0.4c-1.9-1.7-3.3-3.8-4.3-6.1c-1.7-3.8-3-7.8-5.7-11.1c-1.1-1.2-2.7-2.3-1.5-4.4c1.2,0.5,2.4,1.1,3.7,1
		C106.3,68.4,108.4,67.1,110.2,68.2z"/>
	<path fill="#F8F8F9" d="M73.1,88.3c0.1,0.6,0.6,1.4,0.3,1.8c-0.5,0.7-1.2-0.1-1.7-0.3c-2.6-0.9-5.3-1-7.9-1.2
		c-1.9-4.1-2.6-8.5-3.9-12.8c-0.4-1.4-0.9-2.8-1.5-4.2c-0.4-1-0.6-2.1,0.4-2.7c1-0.6,2.1-0.7,3.1,0.1c1.6,1.3,2.9,2.9,3.8,4.7
		C68.1,78.7,69.9,83.9,73.1,88.3z"/>
	<path fill="#871C23" d="M100.8,66.5c-0.3,1.7,1.5,2.7,1.5,4.4c-1.8,0.5-0.6,2-1.1,3c-0.7-2.3-1.5-4.6-2.2-6.9
		C99.7,67.5,100.2,66.6,100.8,66.5z"/>
	<path fill="#871C23" d="M85.7,62c-0.5,1.5,1,1.4,1.6,2c0.8,0.7,1.7,1.3,2.2,2.3c-2.2-0.2-3-2.3-4.6-3.4
		C84.1,62.5,84.8,61.9,85.7,62z"/>
	<path fill="#871C23" d="M110.2,68.2c-1.9,0.1-3.8,0.2-5.7-0.7C106.4,67.7,108.4,66.8,110.2,68.2z"/>
	<path fill="#F9F8F8" d="M326.6,30.7c1.9,5.3,3.8,10.7,5.7,16c0.4,1.1,0.1,1.6-1.1,1.6c-3.3,0-6.5,0-9.8,0c-1.2,0-1.5-0.4-1.2-1.5
		c1.9-5.3,3.7-10.7,5.6-16C326.1,30.7,326.4,30.7,326.6,30.7z"/>
	<path fill="#FBF9FA" d="M539.6,31.3c1.9,5.3,3.8,10.6,5.7,15.9c0.4,1.1-0.1,1.3-1,1.3c-3.3,0-6.5,0-9.8,0c-1,0-1.4-0.4-1.1-1.4
		c1.9-5.3,3.7-10.6,5.6-15.9C539.2,31.3,539.4,31.3,539.6,31.3z"/>
	<path fill="#FEFEFE" d="M221.3,99.7c0.6,6.7-5.6,13.6-13.6,13.6c-7.5,0-13.5-6.1-13.5-13.5c0.1-7.6,6-13.4,13.5-13.4
		C215.5,86.4,222,93,221.3,99.7z"/>
	<path fill="#FAFAF3" d="M362.3,88.3c1.5,3.4,3,6.9,4.5,10.3c0.3,0.6,0.4,1.3,0.7,1.8c0.8,1.4,0.3,1.8-1.2,1.8c-2.9,0-5.8,0-8.7,0
		c-1.2,0-1.9,0-1.2-1.7c1.8-3.9,3.4-8,5.1-12C361.8,88.4,362.1,88.4,362.3,88.3z"/>
	<path fill="#FAFAF3" d="M510.4,102.2c-6.1,0-6.1,0-3.7-5.5c0.9-2.2,1.8-4.4,2.7-6.7c0.2-0.5,0.4-1.1,1-1.2c0.9-0.1,0.9,0.7,1.2,1.3
		c1.4,3.2,2.6,6.5,4.1,9.7c0.8,1.9,0.3,2.6-1.7,2.4C512.8,102.1,511.6,102.2,510.4,102.2z"/>
	<path fill="#F7F8F8" d="M366.8,129c0.1,3.7-2.2,6.5-5.1,6.5c-2.8,0-4.9-2.7-4.9-6.3c0-3.8,2.1-6.6,5-6.5
		C364.6,122.7,366.7,125.4,366.8,129z"/>
	<path fill="#F8F6F5" d="M243.3,129.1c0-0.7-0.1-1.3,0-1.9c0.4-1.4-1.1-3.7,1.2-4.2c2.4-0.5,4.9,0,6.4,2.3c1.5,2.4,1.4,5,0,7.4
		c-1.3,2.4-3.7,2.8-6.3,2.8c-1.1,0-1.5-0.6-1.4-1.6C243.3,132.2,243.3,130.7,243.3,129.1C243.3,129.1,243.3,129.1,243.3,129.1z"/>
	<path fill="#EFE2E0" d="M553,125.8c0.2-1.3-0.7-3.2,1.9-3.1c1.9,0.1,3.6,0.6,3.7,2.9c0,2.4-1.7,3-3.8,3.1
		C552.4,128.8,553.1,127,553,125.8z"/>
	<path fill="#F4E4E3" d="M198.2,125.8c0.1-1.6-0.5-3.4,2.1-3.2c1.9,0.2,3.6,0.7,3.5,3c-0.1,2.3-1.7,2.8-3.7,2.9
		C197.5,128.8,198.5,126.8,198.2,125.8z"/>
	<path fill="#F4E3E0" d="M477.8,124.4c1.1,1.4,1.7,2.7,2,4c0.1,0.6,1,1.5-0.1,1.9c-1,0.3-2.2,0.4-3.3-0.1c-0.6-0.3-0.2-1,0-1.5
		C476.8,127.3,477.2,126,477.8,124.4z"/>
	<path fill="#F6F0E7" d="M435.5,124.1c1.1,1.2,1.2,2.6,1.7,3.8c1.2,2.4,0,2.6-2,2.5c-1.3-0.1-1.7-0.4-1.2-1.7
		C434.6,127.3,435,125.8,435.5,124.1z"/>
	<path fill="#F3EADE" d="M309.4,123.6c0.6,1.7,1.1,2.9,1.5,4.1c0.9,2.5,0.4,3-2.3,2.7c-0.9-0.1-1.4-0.4-1.1-1.4
		C308.1,127.4,308.7,125.8,309.4,123.6z"/>
	<path fill="#F9EDE1" d="M171,123.7c0.6,1.8,1,2.9,1.4,4c0.9,2.5,0.6,2.8-2.1,2.7c-1.3-0.1-1.6-0.6-1.2-1.7c0.2-0.6,0.4-1.2,0.6-1.8
		C170.1,126,170.5,125.2,171,123.7z"/>
	<path fill="#F8EBEA" d="M267.1,123.6c0.7,2,1.1,3.1,1.4,4.3c0.2,0.8,0.9,1.8,0.3,2.3c-0.9,0.7-2.2,0.3-3.2,0.2
		c-0.9-0.1-0.6-0.8-0.4-1.3C265.7,127.4,266.3,125.9,267.1,123.6z"/>
</g>
</svg>
