<?xml version="1.0" encoding="utf-8"?>
<!-- Generator: Adobe Illustrator 23.0.3, SVG Export Plug-In . SVG Version: 6.00 Build 0)  -->
<svg version="1.1" id="Layer_1" xmlns="http://www.w3.org/2000/svg" xmlns:xlink="http://www.w3.org/1999/xlink" x="0px" y="0px"
	 viewBox="0 0 1920 697" style="enable-background:new 0 0 1920 697;" xml:space="preserve">
<style type="text/css">
	.st0{fill:url(#SVGID_1_);}
	.st1{fill:url(#SVGID_2_);filter:url(#Adobe_OpacityMaskFilter);}
	.st2{mask:url(#mask0_35_1655_1_);}
	.st3{opacity:0.1;}
	.st4{fill:#FFFFFF;}
</style>
<linearGradient id="SVGID_1_" gradientUnits="userSpaceOnUse" x1="669.7371" y1="795.7067" x2="1311.557" y2="-196.9427" gradientTransform="matrix(1 0 0 -1 0 695.2813)">
	<stop  offset="0" style="stop-color:#FCF1F0"/>
	<stop  offset="1" style="stop-color:#FCC395"/>
</linearGradient>
<rect y="0" class="st0" width="1920" height="697"/>
<defs>
	<filter id="Adobe_OpacityMaskFilter" filterUnits="userSpaceOnUse" x="-134.3" y="-173.1" width="2316.8" height="1117.4">
		<feColorMatrix  type="matrix" values="1 0 0 0 0  0 1 0 0 0  0 0 1 0 0  0 0 0 1 0"/>
	</filter>
</defs>
<mask maskUnits="userSpaceOnUse" x="-134.3" y="-173.1" width="2316.8" height="1117.4" id="mask0_35_1655_1_">
	
		<linearGradient id="SVGID_2_" gradientUnits="userSpaceOnUse" x1="669.7371" y1="795.7067" x2="1311.557" y2="-196.9427" gradientTransform="matrix(1 0 0 -1 0 695.2813)">
		<stop  offset="0" style="stop-color:#D2EAEF"/>
		<stop  offset="1" style="stop-color:#86BBF1"/>
	</linearGradient>
	<rect y="0" class="st1" width="1920" height="697"/>
</mask>
<g class="st2">
	<g class="st3">
		<path class="st4" d="M1472.7,305c-180.3-18.7-207.5,137.7-198.5,219c23.2,129.8,158.2,208,211.8,235.6
			c42.9,22.1,136.1,112.7,177.4,155.2c163.3,102,219.3-89.9,230.6-123.5c11.3-33.5,19.7-153.4,86.3-244.4
			c53.2-72.8,79.6-151.7,86.1-182c13.8-136.2-53.3-159.9-82.6-169.7c-29.3-9.8-94.9-5.3-206.2,87.2
			C1688.5,356.4,1537.3,328.8,1472.7,305z"/>
	</g>
	<g class="st3">
		<path class="st4" d="M65.7,273c-180.3-18.7-207.5,137.7-198.5,219c23.2,129.8,158.2,208,211.8,235.6
			c42.9,22.1,136.1,112.7,177.4,155.2c163.3,102,219.3-89.9,230.6-123.5c11.3-33.5,19.7-153.4,86.3-244.4
			c53.2-72.8,79.6-151.7,86.1-182C673.2,196.7,606,173,576.7,163.2c-29.3-9.8-94.9-5.3-206.2,87.2C281.5,324.4,130.3,296.8,65.7,273
			z"/>
	</g>
	<g class="st3">
		<path class="st4" d="M1418.4-27.6c-231.3-24-266.3,176.7-254.6,281c29.7,166.5,203,266.8,271.8,302.3
			c55,28.4,174.6,144.5,227.6,199.1c209.5,130.8,281.4-115.4,295.9-158.4c14.5-43,25.3-196.8,110.7-313.6
			c68.3-93.4,102.1-194.6,110.5-233.5c17.8-174.7-68.4-205.1-106-217.7c-37.6-12.6-121.7-6.8-264.6,111.9
			C1695.3,38.4,1501.3,3,1418.4-27.6z"/>
	</g>
</g>
</svg>
